<?xml version="1.0" encoding="utf-8"?>
<!-- Generator: Adobe Illustrator 16.0.0, SVG Export Plug-In . SVG Version: 6.00 Build 0)  -->
<!DOCTYPE svg PUBLIC "-//W3C//DTD SVG 1.1//EN" "http://www.w3.org/Graphics/SVG/1.1/DTD/svg11.dtd">
<svg version="1.1" id="Layer_1" xmlns="http://www.w3.org/2000/svg" xmlns:xlink="http://www.w3.org/1999/xlink" x="0px" y="0px"
	 width="450px" height="156.96px" viewBox="0 0 450 156.96" enable-background="new 0 0 450 156.96" xml:space="preserve">
<g>
	<path fill="#FFFFFF" d="M237.677,100.919c-1.385-0.711-2.773-1.43-4.174-2.141c-0.137-0.071-0.178-0.152-0.169-0.318
		c0.274-5.229,0.557-10.657,0.831-16.29c0.021-0.424,0.128-0.668,0.486-0.774c0.135-0.04,0.177-0.139,0.185-0.297
		c0.057-1.175,0.101-2.36,0.198-3.552c0.041-0.504-0.023-0.888-0.406-1.137c-0.134-0.086-0.147-0.225-0.139-0.396
		c0.181-3.415,0.359-6.904,0.543-10.473c0.016-0.301,0.034-0.604,0.044-0.907c0.004-0.121,0.039-0.185,0.135-0.233
		c0.236-0.124,0.472-0.254,0.698-0.402c0.062-0.04,0.126-0.152,0.131-0.232c0.039-0.513,0.065-1.03,0.086-1.546
		c0.002-0.083-0.033-0.188-0.082-0.245c-0.209-0.24-0.424-0.471-0.646-0.696c-0.1-0.102-0.143-0.209-0.132-0.382
		c0.065-1.022,0.123-2.051,0.178-3.087c0.003-0.032-0.002-0.065-0.012-0.097l-0.172-0.533c-0.003-0.008-0.005-0.015-0.007-0.021
		c-0.028-0.067-0.054-0.123-0.075-0.182l-8.112-17.624c-0.046-0.128-0.068-0.284-0.064-0.428l-0.465-3.71
		c-0.002-0.011-0.002-0.023-0.002-0.023c0-0.021,0-0.03,0-0.039c0.02-1.095-1.081-1.861-2.11-1.489l-15.059,5.862
		c-0.842,0.422-1.36,1.485-1.325,2.677c0.062,2.125,0.122,3.712,0.188,5.786c0.006,0.191-0.032,0.329-0.139,0.458l-9.76,8.889
		c-0.061,0.055-0.091,0.133-0.087,0.214c0.07,1.111,0.135,2.215,0.209,3.312c0.012,0.178-0.024,0.293-0.132,0.4
		c-0.203,0.203-0.398,0.416-0.585,0.639c-0.052,0.062-0.093,0.172-0.089,0.262c0.024,0.517,0.058,1.033,0.102,1.546
		c0.008,0.079,0.078,0.187,0.141,0.229c0.183,0.122,0.373,0.231,0.565,0.32c0.166,0.076,0.225,0.188,0.237,0.397
		c0.228,3.747,0.449,7.407,0.688,10.983c0.03,0.452-0.015,0.799-0.354,1.024c-0.104,0.068-0.125,0.181-0.116,0.326
		c0.087,1.279,0.179,2.548,0.239,3.805c0.016,0.339,0.089,0.559,0.395,0.646c0.154,0.046,0.201,0.159,0.212,0.339
		c0.354,5.754,0.698,11.294,1.035,16.633c0.011,0.176-0.042,0.253-0.179,0.326c-1.411,0.724-2.812,1.452-4.205,2.171
		c-0.095,0.049-0.152,0.152-0.144,0.259c0.027,0.343,0.055,0.688,0.082,1.028c0.007,0.093,0.062,0.172,0.145,0.216
		c0.504,0.255,1.007,0.509,1.51,0.76c0.963,0.481,1.924,0.961,2.883,1.432c0.187,0.091,0.31,0.275,0.322,0.483
		c0.129,2.133,0.262,4.233,0.386,6.301c0.009,0.154,0.055,0.239,0.198,0.309c3.708,1.808,7.367,3.6,10.978,5.364
		c1.428,0.698,2.848,1.394,4.26,2.085c0.044,0.021,0.086,0.052,0.13,0.077c0.009,0,0.02,0,0.031,0
		c0.012-0.008,0.022-0.02,0.037-0.025c2.711-1.333,5.45-2.682,8.217-4.04c2.322-1.141,4.662-2.295,7.024-3.451
		c0.143-0.071,0.204-0.143,0.211-0.312c0.104-2.141,0.219-4.314,0.33-6.524c0.006-0.117,0.027-0.19,0.148-0.248
		c0.398-0.188,0.794-0.394,1.189-0.592c1.03-0.515,2.062-1.031,3.1-1.544c0.176-0.09,0.29-0.264,0.301-0.46
		c0.015-0.291,0.034-0.582,0.062-0.873C237.816,101.028,237.774,100.969,237.677,100.919z"/>
	<path d="M217.187,120.079h-0.266l-0.575-0.315l-5.785-2.829c-3.015-1.474-6.063-2.964-9.148-4.469
		c-0.289-0.141-0.642-0.432-0.677-1.026c-0.069-1.158-0.141-2.322-0.214-3.496l-0.162-2.642c-0.913-0.451-1.827-0.905-2.744-1.364
		c-0.397-0.196-0.795-0.398-1.192-0.6l-0.322-0.163c-0.346-0.176-0.582-0.524-0.612-0.91l-0.08-1.028
		c-0.036-0.449,0.2-0.879,0.604-1.085l0.826-0.428c1.021-0.528,2.045-1.06,3.074-1.59c-0.326-5.154-0.657-10.498-0.998-16.043
		c-0.387-0.245-0.596-0.667-0.624-1.255c-0.049-1.05-0.122-2.107-0.195-3.172l-0.042-0.616c-0.043-0.625,0.276-0.947,0.481-1.087
		c-0.01-0.008-0.001-0.087-0.013-0.265c-0.234-3.512-0.453-7.106-0.676-10.783c-0.146-0.078-0.293-0.167-0.439-0.266
		c-0.283-0.19-0.485-0.528-0.514-0.864c-0.046-0.525-0.079-1.052-0.104-1.581c-0.014-0.299,0.093-0.617,0.287-0.85
		c0.165-0.197,0.337-0.386,0.512-0.567c-0.054-0.812-0.104-1.623-0.154-2.438l-0.046-0.746c-0.022-0.34,0.111-0.668,0.364-0.899
		l9.615-8.758l-0.074-2.293c-0.038-1.094-0.073-2.165-0.11-3.425c-0.045-1.535,0.66-2.896,1.794-3.466l0.074-0.033l15.06-5.862
		c0.952-0.343,1.935-0.087,2.591,0.58c0.453,0.462,0.697,1.075,0.686,1.722l0.468,3.717l-0.001,0.065
		c-0.001,0.036,0.004,0.073,0.008,0.095l8.211,17.874l0.171,0.534c0.044,0.134,0.06,0.271,0.052,0.41
		c-0.053,0.983-0.107,1.965-0.169,2.944c0.192,0.198,0.38,0.4,0.561,0.611c0.192,0.223,0.3,0.532,0.29,0.83
		c-0.021,0.532-0.049,1.059-0.087,1.582c-0.03,0.352-0.236,0.705-0.519,0.889c-0.149,0.096-0.303,0.187-0.457,0.272
		c-0.006,0.107-0.011,0.213-0.018,0.32l-0.075,1.457c-0.159,3.102-0.315,6.145-0.474,9.129c0.626,0.593,0.558,1.425,0.534,1.72
		c-0.075,0.934-0.119,1.883-0.161,2.802l-0.034,0.723c-0.029,0.647-0.431,0.921-0.668,1.028c-0.001,0.012-0.002,0.027-0.003,0.043
		c-0.27,5.515-0.546,10.833-0.814,15.962c0.735,0.378,1.464,0.752,2.191,1.126l1.669,0.855c0.419,0.22,0.634,0.608,0.591,1.075
		c-0.024,0.281-0.044,0.562-0.059,0.844c-0.026,0.499-0.323,0.95-0.773,1.176c-0.767,0.379-1.53,0.761-2.292,1.143l-1.149,0.576
		c-0.18,0.09-0.359,0.183-0.54,0.27l-0.104,2.05c-0.071,1.396-0.142,2.777-0.208,4.147c-0.018,0.327-0.149,0.772-0.688,1.038
		c-1.848,0.904-3.68,1.808-5.498,2.702l-9.682,4.759l-0.179,0.133L217.187,120.079z M202.427,111.057
		c2.996,1.459,5.956,2.909,8.887,4.343l5.863,2.867l9.413-4.628c1.738-0.855,3.486-1.715,5.248-2.578
		c0.061-1.275,0.127-2.562,0.193-3.863l0.12-2.372c0.029-0.574,0.362-0.848,0.638-0.978c0.277-0.129,0.549-0.268,0.822-0.406
		l1.155-0.58c0.71-0.353,1.42-0.709,2.133-1.063c0.006-0.103,0.013-0.206,0.02-0.307l-1.305-0.672
		c-0.829-0.425-1.662-0.854-2.499-1.28c-0.25-0.127-0.671-0.442-0.636-1.121c0.274-5.233,0.558-10.659,0.831-16.29
		c0.031-0.642,0.262-1.099,0.686-1.37l0.02-0.42c0.042-0.935,0.087-1.897,0.166-2.862c0.021-0.268-0.009-0.34-0.012-0.349
		c-0.385-0.247-0.562-0.637-0.533-1.161c0.159-3.034,0.318-6.13,0.48-9.289l0.075-1.462c0.011-0.203,0.024-0.405,0.029-0.606
		c0.011-0.431,0.223-0.776,0.595-0.968c0.131-0.069,0.262-0.14,0.39-0.214c0.024-0.346,0.042-0.695,0.057-1.044
		c-0.153-0.172-0.313-0.34-0.475-0.505c-0.272-0.276-0.4-0.625-0.375-1.033c0.063-0.987,0.118-1.978,0.173-2.974l-0.139-0.43
		c-0.023-0.05-0.042-0.093-0.059-0.136l-8.127-17.665c-0.073-0.203-0.113-0.436-0.115-0.665l-0.466-3.823
		c0.004-0.253-0.104-0.415-0.196-0.508c-0.197-0.202-0.502-0.274-0.77-0.177l-14.996,5.837c-0.519,0.282-0.847,1.028-0.822,1.872
		c0.036,1.258,0.072,2.326,0.109,3.417l0.078,2.368c0.013,0.406-0.096,0.741-0.333,1.028l-0.083,0.088l-9.552,8.699l0.029,0.464
		c0.052,0.859,0.105,1.713,0.163,2.564c0.029,0.424-0.099,0.782-0.381,1.062c-0.143,0.143-0.282,0.29-0.415,0.444
		c0.018,0.351,0.04,0.7,0.067,1.049c0.08,0.046,0.157,0.086,0.233,0.122c0.312,0.144,0.692,0.456,0.734,1.122l0.011,0.169
		c0.223,3.687,0.441,7.288,0.677,10.809c0.02,0.298,0.068,1.023-0.454,1.562l0.027,0.402c0.073,1.062,0.145,2.118,0.195,3.163
		c0.254,0.133,0.572,0.418,0.608,1.018c0.354,5.757,0.697,11.295,1.035,16.633c0.031,0.507-0.197,0.911-0.645,1.141
		c-1.129,0.582-2.252,1.162-3.371,1.742l-0.482,0.25l0.051,0.32c0.394,0.2,0.788,0.398,1.184,0.597
		c0.962,0.479,1.921,0.956,2.879,1.427c0.462,0.229,0.767,0.689,0.798,1.2l0.173,2.8
		C202.297,108.917,202.363,109.99,202.427,111.057z"/>
</g>
<g>
	<g>
		<path d="M285.054,68.066c-2.47-2.952-5.421-4.399-9.037-4.399c-6.326,0-10.786,4.58-10.786,11.027
			c0,6.266,4.521,10.844,10.786,10.844c3.435,0,6.265-1.385,9.037-4.216v12.352l-1.143,0.362c-3.678,1.145-5.605,1.566-8.255,1.566
			c-11.932,0-21.392-9.158-21.392-20.848c0-11.87,9.4-21.209,21.33-21.209c3.073,0,5.726,0.542,9.459,2.047V68.066z"/>
	</g>
	<g>
		<path d="M299.172,67.221v4.46c2.229-3.435,4.82-4.82,8.979-4.82c0.603,0,0.964,0,1.868,0.059v9.218
			c-1.629-0.782-2.35-0.963-4.099-0.963c-4.52,0-6.749,2.592-6.749,7.654v11.688h-9.641V67.221H299.172z"/>
	</g>
	<g>
		<path d="M321.844,82.647c0,4.158,1.929,6.148,5.783,6.148c2.351,0,3.557-0.665,4.761-2.592h9.279
			c-0.723,2.53-1.146,3.432-2.408,4.881c-2.474,2.893-6.69,4.519-11.569,4.519c-9.521,0-15.668-5.665-15.668-14.521
			c0-8.92,5.846-14.643,15.064-14.643c9.4,0,15.004,5.723,15.004,15.243c0,0.239,0,0.542,0,0.964H321.844z M327.446,72.705
			c-2.892,0-4.939,1.567-5.422,4.34h11.086C332.449,74.333,330.338,72.705,327.446,72.705z"/>
	</g>
	<g>
		<path d="M377.394,67.221v27.297h-9.64v-3.012c-2.17,2.71-4.763,3.856-8.376,3.856c-7.835,0-13.86-6.271-13.86-14.523
			c0-8.193,5.967-14.52,13.737-14.52c3.496,0.058,6.087,1.084,8.499,3.614v-2.712H377.394z M361.786,87.106
			c3.435,0,6.27-2.771,6.27-6.205c0-3.435-2.835-6.268-6.27-6.268s-6.205,2.833-6.205,6.268
			C355.581,84.334,358.352,87.106,361.786,87.106z"/>
	</g>
	<g>
		<path d="M390.989,67.221v3.315c2.894-2.712,5.242-3.737,8.859-3.737c4.277,0,7.051,1.506,9.28,5.123
			c2.168-3.434,5.241-5.182,9.219-5.182c3.252,0,6.207,1.445,7.771,3.676c1.025,1.567,1.506,3.496,1.506,6.387v17.714h-9.641V81.02
			c0-4.94-1.085-6.748-4.098-6.748c-3.012,0-4.579,2.29-4.579,6.748v13.498h-9.642V81.02c0-5.122-1.084-6.929-4.217-6.929
			c-3.072,0-4.46,2.11-4.46,6.929v13.498h-9.64V67.221H390.989z"/>
	</g>
</g>
<g>
	<path d="M446.438,71.305c0,3.808-2.989,6.797-6.879,6.797c-3.85,0-6.92-2.989-6.92-6.797c0-3.725,3.07-6.714,6.92-6.714
		C443.448,64.591,446.438,67.581,446.438,71.305z M434.359,71.305c0,2.99,2.211,5.365,5.241,5.365c2.946,0,5.116-2.375,5.116-5.323
		c0-2.99-2.17-5.405-5.158-5.405S434.359,68.357,434.359,71.305z M438.492,74.827h-1.554v-6.715c0.614-0.123,1.473-0.204,2.58-0.204
		c1.268,0,1.841,0.204,2.334,0.491c0.367,0.287,0.654,0.818,0.654,1.473c0,0.737-0.573,1.311-1.394,1.558v0.082
		c0.656,0.246,1.025,0.736,1.229,1.637c0.205,1.023,0.328,1.434,0.492,1.678h-1.68c-0.203-0.245-0.326-0.858-0.531-1.637
		c-0.123-0.737-0.533-1.066-1.391-1.066h-0.74V74.827z M438.534,71.02h0.737c0.86,0,1.557-0.287,1.557-0.982
		c0-0.615-0.451-1.024-1.434-1.024c-0.409,0-0.696,0.041-0.86,0.083V71.02z"/>
</g>
<g>
	<g>
		<path d="M32.519,70.68V55.193h10.425v40.131H32.519v-16.51H17.456v16.51H7.03V55.193h10.425V70.68H32.519z"/>
	</g>
	<g>
		<path d="M55.558,83.453c0,4.158,1.929,6.148,5.784,6.148c2.351,0,3.555-0.665,4.759-2.592h9.281
			c-0.724,2.53-1.146,3.432-2.409,4.881c-2.473,2.891-6.689,4.519-11.569,4.519c-9.52,0-15.668-5.665-15.668-14.52
			c0-8.921,5.846-14.644,15.065-14.644c9.401,0,15.002,5.723,15.002,15.244c0,0.241,0,0.543,0,0.964H55.558z M61.161,73.51
			c-2.893,0-4.941,1.567-5.422,4.34h11.086C66.162,75.14,64.053,73.51,61.161,73.51z"/>
	</g>
	<g>
		<path d="M109.684,68.027v27.296h-9.641v-3.012c-2.168,2.711-4.761,3.857-8.375,3.857c-7.833,0-13.86-6.271-13.86-14.524
			c0-8.194,5.966-14.52,13.741-14.52c3.492,0.059,6.083,1.084,8.495,3.613v-2.711H109.684z M94.076,87.913
			c3.435,0,6.269-2.772,6.269-6.206c0-3.435-2.833-6.268-6.269-6.268c-3.433,0-6.206,2.833-6.206,6.268
			C87.87,85.14,90.643,87.913,94.076,87.913z"/>
	</g>
	<g>
		<path d="M128.779,82.007l6.567-13.98h10.786l-14.221,27.296h-6.446l-14.04-27.296h10.786L128.779,82.007z"/>
	</g>
	<g>
		<path d="M146.54,68.027h11.208l7.292,13.98l7.109-13.98h11.026l-21.934,40.914h-10.783l9.219-17.292L146.54,68.027z"/>
	</g>
</g>
<g>
	<g>
		<path d="M227.066,39.353c-0.046-0.128-0.068-0.284-0.064-0.428l-0.465-3.71c-0.002-0.011-0.002-0.023-0.002-0.023
			c0-0.021,0-0.03,0-0.039c0.02-1.095-1.081-1.861-2.11-1.489l-15.059,5.862c-0.842,0.422-1.36,1.485-1.325,2.677
			c0.062,2.125,0.122,3.712,0.188,5.786c0.006,0.191-0.032,0.329-0.139,0.458l-9.76,8.889c-0.061,0.055-0.091,0.133-0.087,0.214
			c0.07,1.111,0.135,2.215,0.209,3.312c0.012,0.178-0.024,0.293-0.132,0.4c-0.203,0.203-0.398,0.416-0.585,0.639
			c-0.052,0.062-0.093,0.172-0.089,0.262c0.024,0.517,0.058,1.033,0.102,1.546c0.008,0.079,0.078,0.187,0.141,0.229
			c0.183,0.122,0.373,0.231,0.565,0.32c0.166,0.076,0.225,0.188,0.237,0.397c0.228,3.747,0.449,7.407,0.688,10.983
			c0.03,0.452-0.015,0.799-0.354,1.024c-0.104,0.068-0.125,0.181-0.116,0.326c0.087,1.279,0.179,2.548,0.239,3.805
			c0.016,0.339,0.089,0.559,0.395,0.647c0.154,0.044,0.201,0.157,0.212,0.337c0.354,5.754,0.698,11.294,1.035,16.633
			c0.011,0.176-0.042,0.253-0.179,0.326c-1.411,0.724-2.812,1.452-4.205,2.171c-0.095,0.049-0.152,0.152-0.144,0.259
			c0.027,0.343,0.055,0.688,0.082,1.028c0.007,0.093,0.062,0.172,0.145,0.216c0.504,0.255,1.007,0.509,1.51,0.76
			c0.963,0.481,1.924,0.961,2.883,1.432c0.187,0.091,0.31,0.275,0.322,0.483c0.129,2.133,0.261,4.233,0.386,6.301
			c0.009,0.154,0.055,0.239,0.198,0.309c3.708,1.808,7.367,3.6,10.978,5.364c1.428,0.698,2.848,1.394,4.26,2.085
			c0.044,0.021,0.086,0.052,0.13,0.077c0.009,0,0.02,0,0.031,0c0.012-0.008,0.022-0.02,0.037-0.025
			c2.711-1.333,5.45-2.682,8.217-4.04c2.322-1.141,4.662-2.295,7.024-3.451c0.143-0.071,0.204-0.143,0.211-0.312
			c0.104-2.141,0.219-4.314,0.33-6.524c0.006-0.117,0.027-0.19,0.148-0.248c0.398-0.188,0.794-0.394,1.189-0.592
			c1.03-0.515,2.062-1.031,3.1-1.544c0.176-0.09,0.29-0.264,0.301-0.46c0.015-0.291,0.034-0.582,0.062-0.873
			c0.011-0.125-0.031-0.184-0.129-0.233c-1.385-0.711-2.773-1.43-4.174-2.141c-0.137-0.071-0.178-0.152-0.169-0.318
			c0.274-5.229,0.557-10.657,0.831-16.29c0.021-0.424,0.128-0.668,0.486-0.774c0.135-0.04,0.177-0.139,0.185-0.297
			c0.057-1.175,0.101-2.36,0.197-3.552c0.042-0.504-0.022-0.888-0.405-1.137c-0.134-0.086-0.147-0.225-0.139-0.396
			c0.181-3.415,0.359-6.904,0.543-10.473c0.016-0.301,0.034-0.604,0.044-0.907c0.004-0.121,0.039-0.185,0.135-0.233
			c0.236-0.124,0.472-0.254,0.698-0.402c0.062-0.04,0.126-0.152,0.131-0.232c0.039-0.513,0.065-1.03,0.086-1.546
			c0.002-0.083-0.033-0.188-0.082-0.245c-0.209-0.24-0.424-0.471-0.646-0.696c-0.1-0.102-0.143-0.209-0.132-0.382
			c0.065-1.022,0.123-2.051,0.178-3.087c0.003-0.032-0.002-0.065-0.012-0.097l-0.172-0.533c-0.003-0.008-0.005-0.015-0.007-0.021
			c-0.028-0.067-0.054-0.123-0.075-0.182 M233.719,82.166c-0.279,5.582-0.549,10.962-0.805,16.15
			c-0.008,0.164-0.058,0.247-0.199,0.32c-3.743,1.907-7.436,3.794-11.078,5.655c-1.394,0.711-2.78,1.42-4.16,2.124
			c-0.045,0.024-0.094,0.044-0.168,0.08c-0.001-0.084-0.001-0.141-0.001-0.2c-0.022-4.889-0.045-9.954-0.071-15.201
			c-0.002-0.229,0.054-0.376,0.262-0.489c3.09-1.649,6.208-3.328,9.363-5.023c2.169-1.166,4.354-2.338,6.555-3.522
			c0.092-0.05,0.182-0.095,0.316-0.166C233.727,82.011,233.722,82.088,233.719,82.166z M234.562,77.417
			c-0.002,0.111,0.003,0.177-0.002,0.242c-0.053,1.045-0.11,2.083-0.156,3.112c-0.009,0.162-0.067,0.233-0.188,0.299
			c-2.557,1.368-5.089,2.725-7.597,4.073c-2.611,1.404-5.196,2.796-7.758,4.176c-0.467,0.252-0.934,0.503-1.401,0.755
			c-0.04,0.021-0.081,0.035-0.144,0.063c-0.007-0.071-0.015-0.131-0.015-0.19c-0.006-1.012-0.007-2.031-0.019-3.06
			c-0.001-0.146,0.05-0.212,0.161-0.273c5.273-2.829,10.646-5.718,16.123-8.662C233.886,77.78,234.205,77.607,234.562,77.417z
			 M235.188,61.882c0.002,0.002,0.004,0.004,0.007,0.007c0.125,0.125,0.097,0.334-0.058,0.421
			c-5.979,3.368-11.813,6.654-17.556,9.888c-0.178,0.101-0.4-0.031-0.396-0.236c0-0.061,0.003-0.121,0.008-0.181
			c0.005-0.058,0.086-0.124,0.145-0.157c0.974-0.559,1.954-1.114,2.938-1.673c3.02-1.717,6.073-3.453,9.16-5.209
			c1.711-0.972,3.432-1.949,5.16-2.938C234.789,61.694,235.032,61.725,235.188,61.882z M209.736,40.104
			c0.011-0.004,0.02-0.008,0.031-0.013l14.816-5.912c0.679-0.251,1.42,0.248,1.407,0.973v0.019l0.476,3.833
			c-0.005,0.218-0.109,0.239-0.209,0.292c-1.822,0.981-13.401,6.36-17.243,8.426c-0.083,0.043-0.164,0.084-0.272,0.14
			c-0.003-0.125-0.006-0.214-0.009-0.305c-0.051-1.867-0.105-3.241-0.157-5.151C208.542,41.219,208.89,40.534,209.736,40.104z
			 M199.506,57.383c3.458-2.269,5.773-3.939,9.352-6.284c0.137-0.09,0.324-0.035,0.391,0.116l6.864,15.744
			c0.102,0.236-0.156,0.466-0.377,0.337c-5.315-3.1-10.696-6.238-16.218-9.459C199.348,57.737,199.34,57.492,199.506,57.383z
			 M198.81,58.096c0.403,0.232,0.79,0.455,1.176,0.68c4.452,2.591,8.833,5.143,13.145,7.654c1.129,0.658,2.253,1.315,3.376,1.961
			c0.109,0.063,0.151,0.128,0.151,0.274c-0.003,0.625,0.003,1.249,0.007,1.889c0.002,0.205-0.22,0.336-0.397,0.235
			c-0.625-0.354-1.231-0.696-1.839-1.041c-3.783-2.143-7.618-4.314-11.506-6.517c-1.268-0.719-2.542-1.439-3.818-2.169
			c-0.065-0.037-0.145-0.148-0.15-0.227c-0.061-0.857-0.111-1.718-0.162-2.585C198.79,58.208,198.802,58.165,198.81,58.096z
			 M198.628,62.254c-0.15-0.083-0.184-0.286-0.067-0.412c0.077-0.083,0.152-0.161,0.233-0.233c0.038-0.034,0.14-0.001,0.203,0.034
			c0.951,0.534,1.896,1.072,2.84,1.605c4.229,2.39,8.394,4.745,12.5,7.065c0.748,0.422,1.491,0.846,2.237,1.262
			c0.098,0.054,0.148,0.116,0.14,0.251c-0.003,0.035-0.004,0.069-0.005,0.104c-0.003,0.202-0.218,0.33-0.395,0.23
			C210.53,68.922,204.654,65.631,198.628,62.254z M199.223,65.171c-0.013-0.209,0.212-0.352,0.396-0.25
			c0.11,0.061,0.218,0.123,0.326,0.182c4.208,2.373,8.354,4.71,12.439,7.013c1.373,0.774,2.739,1.547,4.103,2.304
			c0.159,0.088,0.209,0.188,0.21,0.391c0.016,3.332,0.037,6.592,0.056,9.783c0.001,0.071,0.001,0.145,0.002,0.258
			c-5.488-2.972-11.065-5.99-16.763-9.076c-0.081-0.044-0.133-0.126-0.139-0.219C199.649,72.2,199.439,68.742,199.223,65.171z
			 M207.571,85.173c-2.542-1.36-5.108-2.732-7.699-4.114c-0.168-0.089-0.253-0.188-0.264-0.418
			c-0.047-0.919-0.107-1.843-0.168-2.804c-0.014-0.208,0.208-0.349,0.392-0.252c5.732,3.065,11.33,6.058,16.823,8.994
			c0.086,0.048,0.141,0.135,0.141,0.233c0.008,1.169,0.014,2.321,0.02,3.412 M200.238,82.109c-0.005-0.083-0.009-0.169-0.018-0.306
			c0.45,0.24,0.859,0.456,1.265,0.674c3.409,1.821,6.777,3.621,10.105,5.399c1.704,0.911,3.396,1.815,5.08,2.711
			c0.112,0.06,0.122,0.141,0.122,0.251c0.016,2.693,0.031,5.337,0.047,7.931c0.017,2.561,0.032,5.079,0.046,7.55
			c0.001,0.065,0.001,0.133,0.002,0.222c-0.055-0.021-0.099-0.033-0.141-0.056c-2.818-1.432-5.667-2.879-8.544-4.342
			c-2.188-1.113-4.393-2.233-6.618-3.358c-0.215-0.106-0.357-0.324-0.372-0.566C200.903,93.042,200.577,87.676,200.238,82.109z
			 M198.379,101.85c-0.308-0.148-0.613-0.305-0.931-0.468c-0.192-0.097-0.194-0.374-0.002-0.473
			c0.431-0.222,0.851-0.439,1.271-0.655c0.744-0.387,1.49-0.769,2.237-1.157c0.086-0.045,0.157-0.062,0.257-0.012
			c0.936,0.479,1.872,0.944,2.802,1.416c2.837,1.436,5.645,2.859,8.424,4.27c1.205,0.611,2.404,1.224,3.601,1.821
			c0.167,0.083,0.354,0.121,0.531,0.178c0.059,0.021,0.118,0.036,0.18,0.098c-0.046,0.027-0.094,0.058-0.143,0.081
			c-1.318,0.602-2.629,1.202-3.938,1.79c-0.073,0.035-0.189,0.027-0.264-0.008c-2.231-1.092-4.476-2.196-6.74-3.311
			c-1.33-0.654-2.666-1.312-4.008-1.969C200.569,102.917,199.475,102.388,198.379,101.85z M216.755,107.798
			c-0.001,0.014-0.003,0.025-0.006,0.039c-0.007,0.054-0.094,0.109-0.154,0.139c-0.982,0.483-1.962,0.959-2.937,1.434
			c-0.241,0.119-0.482,0.233-0.723,0.351c-0.045,0.021-0.094,0.04-0.16,0.067c-0.004-0.2-0.02-0.378-0.006-0.557
			c0.005-0.054,0.08-0.118,0.136-0.145c0.907-0.422,1.82-0.837,2.735-1.257c0.242-0.111,0.486-0.224,0.736-0.339
			C216.563,107.446,216.775,107.594,216.755,107.798z M216.569,118.464c-0.132-0.063-0.265-0.128-0.397-0.191
			c-2.501-1.228-5.027-2.468-7.577-3.717c-2.13-1.044-4.276-2.095-6.44-3.152c-0.098-0.046-0.148-0.097-0.156-0.218
			c-0.116-1.984-0.24-3.996-0.363-6.039c-0.002-0.044,0.001-0.089,0.001-0.167c0.51,0.256,0.994,0.495,1.478,0.735
			c3.15,1.565,6.265,3.118,9.348,4.643c0.065,0.034,0.174,0.019,0.246-0.014c1.319-0.638,2.641-1.279,3.97-1.925
			c0.065-0.031,0.131-0.061,0.211-0.099c0.022,3.39,0.042,6.677,0.062,9.904C216.953,118.421,216.746,118.55,216.569,118.464z
			 M234.725,57.285c0.045,0.121-0.004,0.258-0.116,0.323c-5.893,3.437-11.658,6.797-17.321,10.1
			c-0.145,0.084-0.332,0.014-0.385-0.146c-2.398-7.001-5.257-11.14-7.879-18.85c-0.042-0.124,0.011-0.261,0.127-0.322
			c5.624-2.999,11.369-5.286,17.218-8.399c0.143-0.075,0.319-0.007,0.374,0.146 M217.145,71.101
			c-0.003-0.666,0.025-1.295-0.019-1.922c-0.036-0.513,0.104-0.764,0.506-0.996c4.84-2.803,9.755-5.686,14.764-8.612
			c0.773-0.453,1.551-0.905,2.33-1.36c0.051-0.028,0.104-0.054,0.177-0.092c0.002,0.08,0.008,0.145,0.006,0.209
			c-0.041,0.85-0.087,1.697-0.123,2.539c-0.008,0.151-0.051,0.229-0.166,0.294c-5.001,2.845-9.916,5.646-14.744,8.396
			c-0.854,0.486-1.705,0.972-2.554,1.454C217.275,71.037,217.226,71.059,217.145,71.101z M217.446,74.465
			c3.275-1.846,6.583-3.726,9.935-5.625c2.326-1.318,4.669-2.646,7.034-3.987c0.045-0.024,0.092-0.042,0.173-0.08
			c-0.007,0.117-0.011,0.197-0.014,0.278c-0.18,3.571-0.355,7.065-0.521,10.481c-0.01,0.19-0.061,0.288-0.217,0.374
			c-5.082,2.76-10.072,5.479-14.975,8.146c-0.486,0.265-0.972,0.532-1.457,0.798c-0.056,0.029-0.112,0.054-0.195,0.093
			c0-0.106-0.001-0.184-0.001-0.257c-0.016-3.158-0.027-6.383-0.05-9.676C217.155,74.729,217.227,74.588,217.446,74.465z
			 M217.17,107.667v-0.012c0.009-0.188,0.203-0.31,0.375-0.232c0.27,0.121,0.529,0.238,0.788,0.353
			c0.974,0.448,1.941,0.896,2.911,1.331c0.115,0.052,0.161,0.115,0.15,0.243c-0.002,0.028-0.004,0.054-0.005,0.081
			c-0.007,0.188-0.211,0.308-0.381,0.223c-0.428-0.204-0.838-0.404-1.251-0.604c-0.816-0.394-1.633-0.792-2.456-1.186
			C217.213,107.822,217.163,107.774,217.17,107.667z M232.571,105.125c-0.103,2.04-0.203,4.048-0.298,6.027
			c-0.006,0.143-0.052,0.214-0.184,0.277c-2.145,1.052-4.27,2.102-6.379,3.141c-2.755,1.356-5.483,2.699-8.184,4.027
			c-0.044,0.021-0.091,0.042-0.15,0.067c-0.016-3.22-0.031-6.5-0.046-9.885c-0.001-0.197,0.204-0.328,0.38-0.243
			c0,0,0.002,0.002,0.005,0.002c1.202,0.58,2.399,1.158,3.59,1.738c0.174,0.087,0.376,0.083,0.548-0.002
			c3.083-1.544,6.203-3.103,9.357-4.679c0.403-0.202,0.808-0.406,1.212-0.605c0.042-0.022,0.088-0.038,0.158-0.065
			C232.578,105.006,232.574,105.068,232.571,105.125z M235.863,101.754c-0.999,0.495-1.996,0.988-2.989,1.478
			c-3.414,1.684-6.787,3.345-10.12,4.988c-0.347,0.172-0.69,0.346-1.038,0.511c-0.064,0.029-0.16,0.043-0.22,0.016
			c-1.366-0.618-2.738-1.245-4.115-1.875c-0.013-0.008-0.025-0.021-0.042-0.034c0.023-0.012,0.04-0.029,0.058-0.033
			c0.697-0.137,1.297-0.522,1.923-0.84c3.384-1.721,6.807-3.471,10.273-5.239c1.062-0.542,2.13-1.087,3.205-1.63
			c0.073-0.037,0.187-0.045,0.255-0.012c1.314,0.666,2.619,1.331,3.919,1.996c0.032,0.016,0.062,0.038,0.113,0.071
			C236.667,101.357,236.265,101.557,235.863,101.754z"/>
	</g>
	<g>
		<path d="M209.215,94.632c1.621,0.857,3.231,1.715,4.832,2.566c0.127,0.067,0.255,0.129,0.413,0.208
			c-0.002-0.105-0.002-0.177-0.003-0.243c-0.025-1.778-0.055-3.576-0.074-5.398c-0.002-0.176-0.055-0.263-0.197-0.338
			c-1.4-0.753-2.805-1.518-4.216-2.283c-0.346-0.187-0.69-0.372-1.063-0.574c-0.005,0.083-0.012,0.124-0.011,0.168
			c0.062,1.915,0.125,3.806,0.185,5.671C209.083,94.524,209.119,94.582,209.215,94.632z M210.65,90.06
			c1.05,0.566,2.093,1.135,3.135,1.691c0.113,0.062,0.154,0.129,0.155,0.268c0.012,1.051,0.032,2.097,0.048,3.134
			c0.001,0.054,0.002,0.107,0.003,0.192c-0.328-0.178-0.623-0.334-0.917-0.495c-0.772-0.418-1.546-0.837-2.327-1.253
			c-0.109-0.058-0.155-0.123-0.159-0.26c-0.022-1.045-0.055-2.097-0.083-3.156c-0.001-0.056-0.003-0.11-0.005-0.189
			C210.561,90.019,210.608,90.037,210.65,90.06z M209.845,94.374c0.187-0.135,0.363-0.358,0.564-0.381
			c0.183-0.018,0.393,0.175,0.589,0.279c0.956,0.515,1.907,1.034,2.857,1.539c0.111,0.057,0.156,0.124,0.15,0.259
			c-0.008,0.185,0.003,0.37,0.007,0.588c-1.406-0.746-2.798-1.488-4.207-2.237C209.831,94.389,209.837,94.379,209.845,94.374z"/>
	</g>
	<g>
		<path d="M214.315,98.195c-1.461-0.769-2.927-1.547-4.403-2.329c-0.25-0.132-0.502-0.263-0.787-0.413
			c-0.001,0.104-0.004,0.17-0.002,0.233c0.058,1.786,0.117,3.546,0.169,5.289c0.004,0.15,0.054,0.224,0.181,0.289
			c1.646,0.849,3.28,1.7,4.906,2.544c0.045,0.023,0.094,0.04,0.163,0.069c0.003-0.095,0.008-0.16,0.007-0.228
			c-0.025-1.701-0.05-3.424-0.072-5.168C214.475,98.341,214.441,98.262,214.315,98.195z M210.99,96.954
			c0.978,0.519,1.952,1.033,2.923,1.546c0.078,0.044,0.133,0.079,0.135,0.192c0.01,1.018,0.029,2.027,0.043,3.029
			c0.001,0.025-0.003,0.054-0.007,0.097c-0.061-0.029-0.11-0.049-0.157-0.075c-0.998-0.526-1.998-1.057-3.005-1.582
			c-0.109-0.06-0.151-0.122-0.153-0.251c-0.022-0.969-0.052-1.944-0.078-2.925c-0.001-0.054-0.002-0.104-0.004-0.183
			C210.801,96.858,210.896,96.904,210.99,96.954z M209.931,100.983c0.221-0.161,0.407-0.306,0.601-0.438
			c0.035-0.024,0.105-0.017,0.146,0.006c1.109,0.58,2.213,1.16,3.31,1.742c0.041,0.021,0.097,0.065,0.1,0.099
			c0.012,0.244,0.012,0.489,0.017,0.763C212.707,102.43,211.338,101.715,209.931,100.983z"/>
	</g>
	<g>
		<path d="M208.17,94.935c-1.694-0.891-3.394-1.792-5.107-2.7c-0.049-0.026-0.102-0.048-0.176-0.079
			c0,0.079-0.001,0.118,0.001,0.162c0.1,1.861,0.201,3.703,0.292,5.517c0.007,0.143,0.072,0.194,0.176,0.247
			c1.528,0.79,3.045,1.582,4.554,2.366c0.202,0.105,0.405,0.208,0.641,0.327c-0.004-0.104-0.006-0.169-0.008-0.235
			c-0.062-1.741-0.127-3.503-0.184-5.285C208.354,95.09,208.308,95.008,208.17,94.935z M204.507,93.532
			c0.211,0.108,0.411,0.21,0.608,0.314c0.888,0.47,1.772,0.94,2.656,1.4c0.118,0.062,0.164,0.133,0.168,0.275
			c0.031,1.004,0.071,1.999,0.107,2.989c0.002,0.052,0,0.104-0.001,0.179c-0.057-0.024-0.102-0.038-0.144-0.06
			c-1.031-0.545-2.065-1.091-3.103-1.638c-0.087-0.048-0.142-0.091-0.148-0.212c-0.045-1.029-0.098-2.069-0.147-3.116
			C204.501,93.628,204.505,93.593,204.507,93.532z M203.85,97.819c0.211-0.157,0.396-0.304,0.588-0.436
			c0.03-0.021,0.097-0.005,0.137,0.018c1.135,0.596,2.263,1.188,3.386,1.784c0.039,0.021,0.09,0.071,0.092,0.108
			c0.017,0.231,0.021,0.464,0.031,0.727C206.67,99.286,205.278,98.561,203.85,97.819z"/>
	</g>
	<g>
		<path d="M202.818,91.067c0.007,0.148,0.071,0.205,0.178,0.261c1.729,0.917,3.446,1.83,5.153,2.736
			c0.046,0.026,0.097,0.042,0.16,0.069c0.001-0.079,0.003-0.126,0.001-0.174c-0.065-1.859-0.132-3.742-0.197-5.651
			c-0.004-0.137-0.054-0.2-0.159-0.255c-1.645-0.89-3.296-1.79-4.96-2.693c-0.15-0.081-0.304-0.158-0.483-0.249
			c0,0.091-0.001,0.143,0.001,0.193C202.615,87.25,202.721,89.169,202.818,91.067z M204.154,86.546
			c0.399,0.213,0.771,0.411,1.14,0.609c0.747,0.406,1.491,0.81,2.234,1.212c0.086,0.046,0.151,0.089,0.155,0.22
			c0.037,1.11,0.078,2.212,0.118,3.305c0.001,0.016-0.003,0.036-0.009,0.087c-0.065-0.031-0.117-0.056-0.167-0.083
			c-1.044-0.564-2.093-1.131-3.148-1.695c-0.12-0.064-0.169-0.136-0.176-0.287c-0.044-1.037-0.098-2.083-0.148-3.136
			C204.149,86.71,204.153,86.645,204.154,86.546z M204.09,90.599c0.034-0.021,0.108,0,0.153,0.025
			c1.16,0.622,2.315,1.244,3.463,1.867c0.04,0.022,0.096,0.067,0.099,0.107c0.018,0.241,0.023,0.483,0.032,0.76
			c-1.448-0.771-2.875-1.532-4.339-2.312C203.711,90.884,203.897,90.734,204.09,90.599z"/>
	</g>
	<g>
		<path d="M225.22,88.617c-1.727,0.941-3.44,1.878-5.147,2.804c-0.115,0.062-0.146,0.137-0.146,0.27
			c-0.005,1.854-0.014,3.682-0.023,5.487c0,0.057,0.006,0.114,0.01,0.188c0.061-0.027,0.106-0.043,0.148-0.067
			c1.666-0.889,3.34-1.786,5.029-2.681c0.113-0.06,0.146-0.135,0.149-0.266c0.039-1.843,0.082-3.708,0.125-5.6
			c0.002-0.06-0.002-0.118-0.005-0.197C225.301,88.582,225.26,88.593,225.22,88.617z M220.375,91.983
			c0-0.104,0.013-0.18,0.115-0.235c1.046-0.562,2.094-1.137,3.146-1.711c0.04-0.021,0.083-0.035,0.155-0.065
			c-0.003,0.206-0.006,0.381-0.01,0.555c-0.016,0.927-0.034,1.848-0.045,2.763c-0.001,0.146-0.041,0.229-0.167,0.297
			c-1.021,0.546-2.035,1.099-3.045,1.646c-0.045,0.023-0.09,0.041-0.155,0.075c-0.004-0.073-0.011-0.129-0.011-0.187
			C220.365,94.083,220.371,93.039,220.375,91.983z M220.349,96.611c0.003-0.25-0.006-0.47,0.011-0.689
			c0.005-0.054,0.084-0.114,0.141-0.145c0.953-0.521,1.909-1.039,2.869-1.561c0.02-0.012,0.04-0.021,0.061-0.031
			c0.56-0.305,0.59-0.301,1.086,0.192C223.124,95.124,221.747,95.86,220.349,96.611z"/>
	</g>
	<g>
		<path d="M231.553,85.162c-1.751,0.955-3.489,1.905-5.221,2.844c-0.142,0.075-0.185,0.166-0.189,0.335
			c-0.041,1.867-0.089,3.714-0.137,5.538c-0.002,0.065-0.003,0.133-0.006,0.233c0.076-0.036,0.124-0.054,0.168-0.077
			c1.697-0.907,3.406-1.822,5.127-2.736c0.118-0.062,0.169-0.131,0.175-0.281c0.078-1.885,0.163-3.794,0.248-5.727
			c0.002-0.063-0.001-0.125-0.003-0.204C231.647,85.119,231.6,85.136,231.553,85.162z M226.509,91.759
			c0.029-1.037,0.06-2.081,0.082-3.132c0.003-0.145,0.04-0.227,0.163-0.294c1.066-0.572,2.134-1.154,3.206-1.736
			c0.037-0.02,0.074-0.033,0.146-0.071c-0.003,0.094-0.006,0.156-0.008,0.218c-0.041,1.054-0.085,2.1-0.116,3.137
			c-0.006,0.162-0.062,0.239-0.19,0.311c-1.04,0.557-2.071,1.119-3.101,1.68c-0.054,0.029-0.11,0.053-0.188,0.091
			C226.506,91.878,226.509,91.819,226.509,91.759z M226.469,93.332c0.007-0.268,0.008-0.505,0.023-0.744
			c0.003-0.042,0.059-0.104,0.101-0.125c1.152-0.63,2.312-1.258,3.479-1.885c0.046-0.026,0.124-0.026,0.163,0
			c0.186,0.131,0.363,0.275,0.57,0.434C229.345,91.793,227.914,92.557,226.469,93.332z"/>
	</g>
	<g>
		<path d="M231.227,92.215c-1.705,0.908-3.396,1.813-5.082,2.704c-0.125,0.063-0.172,0.135-0.175,0.285
			c-0.041,1.802-0.089,3.582-0.132,5.341c-0.001,0.055,0.002,0.112,0.004,0.193c0.085-0.039,0.149-0.065,0.213-0.099
			c1.644-0.857,3.297-1.725,4.964-2.59c0.115-0.06,0.15-0.131,0.154-0.26c0.075-1.794,0.156-3.609,0.236-5.447
			c0.003-0.063-0.002-0.128-0.004-0.212C231.328,92.167,231.277,92.189,231.227,92.215z M226.336,98.205
			c0.024-0.905,0.047-1.813,0.077-2.727c0.002-0.067,0.039-0.176,0.089-0.202c1.07-0.578,2.15-1.15,3.233-1.725
			c0.019-0.01,0.041-0.016,0.093-0.035c-0.005,0.097-0.007,0.168-0.01,0.239c-0.037,0.992-0.078,1.979-0.11,2.954
			c-0.004,0.139-0.041,0.214-0.161,0.275c-1.03,0.541-2.053,1.087-3.073,1.626c-0.044,0.023-0.089,0.041-0.15,0.071
			C226.328,98.507,226.332,98.355,226.336,98.205z M226.287,99.997c0.008-0.26,0.006-0.485,0.025-0.713
			c0.007-0.052,0.083-0.113,0.138-0.145c1.043-0.557,2.095-1.101,3.137-1.675c0.236-0.133,0.4-0.129,0.581,0.049
			c0.098,0.098,0.213,0.171,0.347,0.273C229.088,98.532,227.697,99.26,226.287,99.997z"/>
	</g>
	<g>
		<path d="M220.07,98.155c-0.126,0.067-0.174,0.137-0.174,0.291c-0.004,1.755-0.013,3.491-0.021,5.204
			c-0.001,0.062-0.001,0.121-0.001,0.202c0.068-0.03,0.114-0.046,0.155-0.067c1.623-0.848,3.253-1.701,4.897-2.555
			c0.123-0.063,0.162-0.141,0.165-0.279c0.034-1.746,0.077-3.515,0.118-5.305c0.001-0.061,0.002-0.12,0.005-0.224
			c-0.095,0.048-0.16,0.079-0.224,0.111C223.341,96.415,221.702,97.292,220.07,98.155z M220.334,98.708
			c0-0.103,0.012-0.172,0.113-0.224c1.022-0.537,2.046-1.083,3.074-1.63c0.04-0.021,0.08-0.039,0.136-0.065
			c0.004,0.065,0.012,0.117,0.011,0.169c-0.018,0.987-0.036,1.968-0.049,2.942c-0.001,0.11-0.029,0.178-0.131,0.229
			c-1.021,0.538-2.036,1.081-3.048,1.617c-0.032,0.019-0.068,0.028-0.114,0.048c-0.003-0.063-0.007-0.113-0.007-0.164
			C220.323,100.662,220.331,99.69,220.334,98.708z M220.312,103.125c0-0.27-0.005-0.507,0.009-0.747
			c0.003-0.045,0.075-0.103,0.127-0.131c1.022-0.544,2.059-1.075,3.082-1.642c0.296-0.166,0.525-0.191,0.773,0.036
			c0.089,0.081,0.197,0.135,0.33,0.224C223.17,101.63,221.749,102.373,220.312,103.125z"/>
	</g>
	<g>
		<path d="M203.459,76.673c0.005,0.132,0.052,0.193,0.15,0.249c0.593,0.326,1.181,0.658,1.768,0.987
			c0.042,0.023,0.085,0.038,0.151,0.068c0.002-0.079,0.007-0.125,0.005-0.172c-0.111-2.624-0.227-5.293-0.339-8.009
			c-0.006-0.132-0.048-0.203-0.151-0.262c-0.612-0.346-1.221-0.702-1.833-1.055c-0.043-0.023-0.089-0.039-0.145-0.063
			c-0.001,0.069-0.004,0.118-0.002,0.167C203.199,71.326,203.331,74.022,203.459,76.673z M204.318,69.737
			c0.323,0.131,0.416,0.358,0.428,0.749c0.051,1.651,0.134,3.286,0.21,4.902c0.009,0.169-0.03,0.258-0.163,0.327
			c-0.288,0.151-0.566,0.325-0.876,0.505c-0.108-2.279-0.215-4.545-0.328-6.886C203.845,69.478,204.074,69.639,204.318,69.737z"/>
	</g>
	<g>
		<path d="M206.175,78.263c0.586,0.324,1.168,0.654,1.751,0.979c0.042,0.023,0.085,0.04,0.151,0.069
			c0.004-0.077,0.008-0.121,0.007-0.168c-0.089-2.601-0.181-5.247-0.271-7.938c-0.004-0.13-0.042-0.204-0.146-0.263
			c-0.611-0.346-1.22-0.701-1.833-1.052c-0.037-0.021-0.077-0.032-0.127-0.053c-0.002,0.063-0.006,0.111-0.004,0.16
			c0.11,2.719,0.221,5.392,0.326,8.02C206.032,78.145,206.076,78.209,206.175,78.263z M207.27,71.351
			c0.039,0.023,0.065,0.119,0.067,0.18c0.066,1.779,0.13,3.538,0.189,5.278c0.003,0.06-0.015,0.153-0.05,0.175
			c-0.319,0.197-0.644,0.381-0.984,0.581c-0.089-2.25-0.177-4.499-0.269-6.821C206.587,70.952,206.931,71.145,207.27,71.351z"/>
	</g>
	<g>
		<path d="M200.87,75.296c0.007,0.133,0.041,0.211,0.153,0.272c0.425,0.228,0.841,0.471,1.261,0.707
			c0.215,0.12,0.432,0.235,0.671,0.368c0.001-0.101,0.006-0.167,0.002-0.231c-0.133-2.621-0.269-5.285-0.403-7.997
			c-0.007-0.158-0.052-0.246-0.177-0.317c-0.601-0.336-1.2-0.686-1.801-1.031c-0.05-0.028-0.1-0.047-0.168-0.079
			c0,0.085-0.004,0.147-0.001,0.21C200.564,69.944,200.72,72.644,200.87,75.296z M201.789,68.388
			c0.226,0.107,0.306,0.253,0.319,0.545c0.075,1.722,0.169,3.426,0.263,5.111c0.008,0.161-0.021,0.252-0.147,0.319
			c-0.295,0.156-0.579,0.333-0.896,0.516c-0.127-2.3-0.256-4.597-0.388-6.965C201.232,68.081,201.505,68.255,201.789,68.388z"/>
	</g>
	<g>
		<path d="M211.238,80.913c0.575,0.316,1.147,0.642,1.721,0.962c0.039,0.021,0.081,0.032,0.131,0.052
			c0.006-0.043,0.013-0.069,0.012-0.095c-0.046-2.588-0.092-5.221-0.147-7.9c-0.001-0.075-0.081-0.182-0.146-0.222
			c-0.529-0.315-1.065-0.62-1.601-0.928c-0.09-0.052-0.182-0.102-0.3-0.167c-0.004,0.083-0.01,0.131-0.009,0.18
			c0.065,2.67,0.131,5.296,0.192,7.878C211.094,80.804,211.146,80.861,211.238,80.913z M212.435,74.119
			c0.032,0.019,0.051,0.107,0.052,0.163c0.036,1.756,0.07,3.492,0.101,5.207c0.002,0.054-0.018,0.135-0.05,0.152
			c-0.317,0.188-0.637,0.366-0.975,0.557c-0.051-2.205-0.102-4.409-0.154-6.682C211.763,73.723,212.101,73.915,212.435,74.119z"/>
	</g>
	<g>
		<path d="M208.706,79.586c0.587,0.324,1.17,0.653,1.752,0.979c0.036,0.02,0.074,0.032,0.129,0.054
			c0.004-0.073,0.009-0.133,0.007-0.188c-0.066-2.566-0.137-5.175-0.203-7.829c-0.003-0.149-0.047-0.225-0.162-0.289
			c-0.584-0.329-1.167-0.668-1.75-1.005c-0.047-0.026-0.098-0.045-0.156-0.072c-0.004,0.065-0.008,0.107-0.006,0.148
			c0.088,2.703,0.176,5.358,0.259,7.969C208.579,79.473,208.614,79.535,208.706,79.586z M209.861,72.738
			c0.032,0.021,0.051,0.108,0.053,0.165c0.052,1.776,0.101,3.533,0.146,5.27c0.001,0.057-0.026,0.143-0.062,0.165
			c-0.311,0.189-0.625,0.366-0.964,0.562c-0.069-2.24-0.139-4.47-0.211-6.77C209.184,72.339,209.525,72.534,209.861,72.738z"/>
	</g>
	<g>
		<path d="M213.511,76.859c0.031,1.781,0.061,3.542,0.085,5.281c0.002,0.145,0.038,0.229,0.157,0.289
			c0.208,0.105,0.408,0.228,0.612,0.341c0.394,0.222,0.789,0.441,1.208,0.673c0.005-0.067,0.009-0.101,0.009-0.131
			c-0.026-2.552-0.053-5.146-0.075-7.786c-0.002-0.136-0.055-0.191-0.148-0.245c-0.572-0.325-1.144-0.657-1.718-0.986
			c-0.046-0.027-0.096-0.047-0.173-0.083c0.002,0.102,0.003,0.176,0.004,0.25C213.485,75.265,213.498,76.064,213.511,76.859z
			 M214.938,75.668c0.052,0.033,0.091,0.152,0.093,0.231c0.018,1.158,0.03,2.308,0.043,3.447c0.007,0.525,0.009,1.048,0.021,1.566
			c0.003,0.129-0.024,0.204-0.132,0.262c-0.298,0.154-0.591,0.324-0.905,0.499c-0.032-2.167-0.065-4.338-0.099-6.58
			C214.301,75.292,214.625,75.47,214.938,75.668z"/>
	</g>
	<g>
		<path d="M218.291,83.423c0.075-0.035,0.126-0.06,0.176-0.087c0.543-0.305,1.083-0.618,1.632-0.915
			c0.128-0.071,0.169-0.158,0.17-0.318c0.01-2.517,0.025-5.077,0.039-7.679c0.001-0.068,0.001-0.137,0.002-0.238
			c-0.079,0.04-0.123,0.058-0.165,0.083c-0.564,0.327-1.126,0.658-1.692,0.976c-0.136,0.077-0.187,0.167-0.186,0.345
			c0.007,2.577,0.009,5.11,0.012,7.603C218.279,83.261,218.286,83.329,218.291,83.423z M218.75,75.857
			c0.001-0.065,0.028-0.164,0.068-0.189c0.323-0.198,0.651-0.382,1-0.583c-0.009,2.211-0.018,4.357-0.026,6.503
			c-0.337-0.188-0.662-0.36-0.977-0.554c-0.048-0.028-0.068-0.156-0.068-0.24c-0.004-1.312-0.002-2.635-0.002-3.97
			C218.747,76.502,218.742,76.18,218.75,75.857z"/>
	</g>
	<g>
		<path d="M222.576,80.915c0.135-0.073,0.182-0.16,0.184-0.333c0.029-2.535,0.066-5.114,0.102-7.737
			c0.001-0.074,0.002-0.148,0.003-0.251c-0.074,0.036-0.124,0.057-0.171,0.084c-0.564,0.328-1.125,0.662-1.692,0.977
			c-0.152,0.085-0.2,0.191-0.201,0.382c-0.013,2.583-0.034,5.122-0.05,7.619c0,0.079-0.001,0.157-0.002,0.275
			c0.091-0.045,0.145-0.069,0.195-0.099C221.485,81.527,222.027,81.213,222.576,80.915z M221.278,74.364
			c0-0.177,0.042-0.276,0.184-0.352c0.297-0.155,0.588-0.333,0.907-0.518c-0.027,2.259-0.053,4.438-0.08,6.622
			c-0.243-0.133-0.461-0.285-0.698-0.378c-0.298-0.117-0.367-0.323-0.359-0.676C221.264,77.514,221.269,75.947,221.278,74.364z"/>
	</g>
	<g>
		<path d="M232.75,75.56c0.12-0.067,0.168-0.146,0.174-0.3c0.118-2.641,0.244-5.326,0.369-8.059
			c0.004-0.074-0.002-0.147-0.005-0.248c-0.087,0.048-0.143,0.077-0.198,0.109c-0.58,0.338-1.156,0.682-1.737,1.006
			c-0.148,0.083-0.19,0.182-0.198,0.363c-0.101,2.69-0.207,5.335-0.31,7.935c-0.003,0.076-0.007,0.15-0.011,0.262
			c0.085-0.042,0.141-0.065,0.193-0.096C231.601,76.209,232.172,75.879,232.75,75.56z M231.638,68.673
			c0.002-0.055,0.03-0.137,0.066-0.158c0.339-0.207,0.683-0.404,1.059-0.623c-0.104,2.357-0.206,4.627-0.309,6.903
			c-0.345-0.202-0.67-0.389-0.993-0.586c-0.031-0.02-0.049-0.105-0.045-0.158C231.486,72.278,231.559,70.486,231.638,68.673z"/>
	</g>
	<g>
		<path d="M223.43,80.523c0.552-0.312,1.104-0.628,1.662-0.931c0.133-0.073,0.171-0.167,0.174-0.327
			c0.051-2.558,0.11-5.159,0.167-7.804c0.002-0.074,0.003-0.149,0.006-0.256c-0.086,0.042-0.141,0.065-0.194,0.096
			c-0.57,0.329-1.136,0.664-1.708,0.985c-0.136,0.075-0.177,0.171-0.18,0.34c-0.036,2.625-0.077,5.208-0.115,7.747
			c-0.001,0.07,0.006,0.14,0.008,0.239C223.325,80.574,223.379,80.552,223.43,80.523z M223.832,72.882
			c0.001-0.061,0.043-0.151,0.087-0.179c0.326-0.199,0.655-0.387,1.014-0.596c-0.046,2.282-0.09,4.493-0.135,6.708
			c-0.348-0.199-0.681-0.384-1.009-0.581c-0.031-0.018-0.046-0.103-0.044-0.158C223.771,76.365,223.799,74.634,223.832,72.882z"/>
	</g>
	<g>
		<path d="M227.623,78.257c0.122-0.067,0.172-0.149,0.176-0.31c0.073-2.587,0.153-5.219,0.232-7.897
			c0.004-0.074-0.001-0.149-0.003-0.247c-0.077,0.038-0.132,0.062-0.186,0.093c-0.571,0.33-1.138,0.665-1.709,0.984
			c-0.147,0.083-0.201,0.178-0.205,0.371c-0.054,2.643-0.118,5.242-0.178,7.797c-0.001,0.071-0.003,0.145-0.005,0.246
			c0.072-0.034,0.122-0.051,0.168-0.077C226.483,78.899,227.051,78.574,227.623,78.257z M226.412,71.479
			c0.001-0.053,0.03-0.133,0.065-0.154c0.339-0.205,0.682-0.399,1.043-0.607c-0.065,2.299-0.128,4.532-0.191,6.766
			c-0.344-0.197-0.671-0.382-0.994-0.577c-0.033-0.02-0.056-0.097-0.055-0.149C226.321,75.018,226.363,73.259,226.412,71.479z"/>
	</g>
	<g>
		<path d="M230.162,76.921c0.136-0.073,0.18-0.164,0.187-0.329c0.094-2.603,0.196-5.25,0.299-7.941c0.003-0.076,0-0.152-0.002-0.257
			c-0.08,0.041-0.136,0.064-0.189,0.096c-0.575,0.331-1.147,0.667-1.724,0.988c-0.142,0.08-0.193,0.173-0.2,0.358
			c-0.079,2.672-0.163,5.299-0.244,7.882c-0.002,0.072-0.005,0.144-0.008,0.244c0.078-0.036,0.128-0.055,0.175-0.081
			C229.022,77.562,229.59,77.235,230.162,76.921z M228.931,72.441c0.024-0.762,0.054-1.527,0.073-2.295
			c0.003-0.141,0.04-0.219,0.15-0.279c0.316-0.17,0.63-0.354,0.967-0.548c-0.085,2.318-0.166,4.565-0.249,6.812
			c-0.342-0.198-0.664-0.379-0.979-0.577c-0.04-0.026-0.058-0.137-0.056-0.21C228.864,74.383,228.899,73.415,228.931,72.441z"/>
	</g>
</g>
<g>
	<g>
		<g>
			<path d="M203.834,32.415c-0.307,0-0.615-0.117-0.849-0.352l-5.435-5.435c-0.469-0.468-0.469-1.229,0-1.698
				c0.468-0.469,1.229-0.469,1.698,0l5.435,5.435c0.469,0.469,0.469,1.23,0,1.698C204.449,32.298,204.141,32.415,203.834,32.415z"/>
		</g>
		<g>
			<path d="M232.313,32.415c-0.306,0-0.613-0.117-0.849-0.352c-0.469-0.468-0.469-1.229,0-1.698l5.436-5.435
				c0.471-0.469,1.23-0.468,1.699,0c0.468,0.469,0.468,1.229,0,1.698l-5.436,5.435C232.929,32.298,232.621,32.415,232.313,32.415z"
				/>
		</g>
	</g>
	<g>
		<path d="M218.074,24.167c-0.663,0-1.201-0.538-1.201-1.201v-9.243c0-0.664,0.538-1.201,1.201-1.201
			c0.665,0,1.201,0.538,1.201,1.201v9.243C219.275,23.63,218.738,24.167,218.074,24.167z"/>
	</g>
	<g>
		<g>
			<path d="M211.164,26.98c-0.456,0-0.893-0.262-1.095-0.706l-3.813-8.418c-0.274-0.604-0.006-1.316,0.598-1.59
				c0.605-0.272,1.316-0.005,1.59,0.599l3.814,8.419c0.273,0.604,0.006,1.315-0.599,1.59C211.498,26.946,211.33,26.98,211.164,26.98
				z"/>
		</g>
		<g>
			<path d="M224.984,26.98c-0.166,0-0.333-0.034-0.495-0.107c-0.604-0.274-0.872-0.985-0.598-1.59l3.814-8.419
				c0.273-0.604,0.985-0.871,1.59-0.599c0.604,0.274,0.871,0.986,0.598,1.59l-3.814,8.418
				C225.877,26.718,225.442,26.98,224.984,26.98z"/>
		</g>
	</g>
</g>
<g>
	<g>
		<path d="M7.072,127.137c0,0.686,0.088,0.8,0.656,0.8v0.145H6.169v-0.145c0.568,0,0.649-0.114,0.649-0.8v-2.222
			c0-0.683-0.082-0.792-0.649-0.792v-0.145h1.162l1.449,3.329l1.442-3.329h1.074v0.145c-0.574,0-0.656,0.109-0.656,0.792v2.222
			c0,0.686,0.082,0.8,0.656,0.8v0.145H9.45v-0.145c0.568,0,0.649-0.114,0.649-0.8v-2.228l-1.421,3.287H8.588l-1.516-3.493V127.137z"
			/>
		<path d="M8.759,128.32H8.508l-1.313-3.023v1.841c0,0.651,0.061,0.676,0.534,0.676h0.123v0.39H6.046v-0.39h0.123
			c0.467,0,0.526-0.024,0.526-0.676v-2.222c0-0.649-0.051-0.669-0.526-0.669H6.046v-0.388h1.365L8.78,127l1.362-3.142h1.277v0.388
			h-0.124c-0.48,0-0.533,0.02-0.533,0.669v2.222c0,0.651,0.06,0.676,0.533,0.676h0.124v0.39H9.326v-0.39H9.45
			c0.467,0,0.526-0.024,0.526-0.676v-1.636L8.759,128.32z M7.185,124.655l1.448,3.336l1.353-3.131l0.235,0.05v2.228
			c0,0.449-0.041,0.697-0.236,0.822h0.77c-0.198-0.125-0.239-0.373-0.239-0.822v-2.222c0-0.443,0.041-0.69,0.237-0.813h-0.451
			l-1.522,3.515l-1.529-3.515H6.707c0.194,0.123,0.235,0.37,0.235,0.813v2.222c0,0.449-0.041,0.697-0.237,0.822h0.49
			c-0.202-0.125-0.246-0.377-0.246-0.822v-2.434L7.185,124.655z"/>
	</g>
	<g>
		<path d="M16.732,127.417c-0.163,0.37-0.033,0.521,0.535,0.521v0.145h-1.6v-0.145c0.574,0,0.607-0.114,0.819-0.596l1.504-3.477
			h0.089l1.51,3.477c0.211,0.481,0.246,0.596,0.814,0.596v0.145h-1.893v-0.145c0.565,0,0.696-0.143,0.532-0.521l-0.329-0.759h-1.653
			L16.732,127.417z M17.882,124.759l-0.711,1.646H18.6L17.882,124.759z"/>
		<path d="M20.527,128.203h-2.14v-0.39h0.123c0.349,0,0.439-0.058,0.463-0.094c0.026-0.039,0.011-0.128-0.043-0.253l-0.296-0.684
			h-1.492l-0.297,0.684c-0.055,0.122-0.069,0.21-0.042,0.251c0.023,0.036,0.114,0.096,0.464,0.096h0.123v0.39h-1.845v-0.39h0.122
			c0.477,0,0.497-0.044,0.688-0.478l0.02-0.044l1.536-3.552h0.25l1.559,3.594c0.193,0.436,0.213,0.479,0.685,0.479h0.124V128.203z
			 M19.07,127.959h0.777c-0.152-0.094-0.232-0.258-0.353-0.527l-0.017-0.039l-1.441-3.323l-1.455,3.364
			c-0.119,0.27-0.2,0.432-0.352,0.525h0.479c-0.047-0.03-0.083-0.067-0.111-0.107c-0.102-0.156-0.035-0.353,0.024-0.485l0.36-0.831
			h1.813l0.361,0.833c0.059,0.133,0.124,0.331,0.022,0.485C19.151,127.894,19.116,127.929,19.07,127.959z M18.786,126.53h-1.802
			l0.896-2.079L18.786,126.53z M17.357,126.284h1.056l-0.531-1.216L17.357,126.284z"/>
	</g>
	<g>
		<path d="M24.781,127.937c0.568,0,0.649-0.114,0.649-0.8v-2.222c0-0.683-0.081-0.792-0.649-0.792v-0.145h1.854
			c1.592,0,2.282,0.925,2.282,2.052c0,1.126-0.69,2.051-2.282,2.051h-1.854V127.937z M25.978,127.035
			c0,0.685,0.075,0.794,0.634,0.794h0.029c1.332,0,1.619-0.998,1.619-1.798s-0.287-1.798-1.619-1.798c-0.083,0-0.663,0-0.663,0
			V127.035z"/>
		<path d="M26.635,128.203h-1.977v-0.39h0.123c0.467,0,0.527-0.024,0.527-0.676v-2.222c0-0.649-0.053-0.669-0.527-0.669h-0.123
			v-0.388h1.977c1.505,0,2.404,0.812,2.404,2.172S28.14,128.203,26.635,128.203z M25.317,127.959h1.318
			c1.352,0,2.159-0.723,2.159-1.929c0-1.208-0.807-1.929-2.159-1.929h-1.316c0.194,0.123,0.235,0.37,0.235,0.813v2.222
			C25.554,127.586,25.513,127.834,25.317,127.959z M26.641,127.949c-0.687,0-0.787-0.203-0.787-0.914v-2.925h0.787
			c1.515,0,1.742,1.202,1.742,1.921C28.383,126.748,28.156,127.949,26.641,127.949z M26.101,124.355v2.68
			c0,0.647,0.05,0.671,0.511,0.671c1.265,0,1.525-0.911,1.525-1.675c0-0.763-0.26-1.676-1.496-1.676H26.101z"/>
	</g>
	<g>
		<path d="M37.532,126.931c0,0.638-0.52,1.15-1.47,1.15h-2.029v-0.145c0.568,0,0.649-0.114,0.649-0.8v-2.222
			c0-0.683-0.081-0.792-0.649-0.792v-0.145h1.839c0.867,0,1.319,0.46,1.319,1.028c0,0.352-0.219,0.661-0.535,0.845
			C37.184,126.015,37.532,126.44,37.532,126.931z M35.229,125.771h0.607c0.513,0,0.751-0.343,0.751-0.764
			c0-0.426-0.239-0.774-0.751-0.774h-0.607V125.771z M36.931,126.931c0-0.499-0.281-0.906-0.875-0.906h-0.826v1.01
			c0,0.685,0.082,0.794,0.649,0.794h0.177C36.65,127.829,36.931,127.422,36.931,126.931z"/>
		<path d="M36.062,128.203H33.91v-0.39h0.123c0.467,0,0.526-0.024,0.526-0.676v-2.222c0-0.649-0.053-0.669-0.526-0.669H33.91v-0.388
			h1.962c0.995,0,1.442,0.576,1.442,1.148c0,0.305-0.147,0.6-0.402,0.813c0.458,0.22,0.742,0.638,0.742,1.11
			C37.654,127.565,37.163,128.203,36.062,128.203z M34.569,127.959h1.494c0.818,0,1.346-0.404,1.346-1.028
			c0-0.436-0.309-0.813-0.789-0.962l-0.265-0.083l0.24-0.139c0.297-0.175,0.474-0.449,0.474-0.74c0-0.551-0.469-0.905-1.196-0.905
			h-1.302c0.194,0.123,0.234,0.37,0.234,0.813v2.222C34.805,127.586,34.765,127.834,34.569,127.959z M36.056,127.949h-0.177
			c-0.67,0-0.772-0.203-0.772-0.914v-1.133h0.949c0.606,0,0.998,0.406,0.998,1.029C37.053,127.551,36.662,127.949,36.056,127.949z
			 M35.352,126.145v0.89c0,0.647,0.052,0.671,0.527,0.671h0.177c0.472,0,0.752-0.289,0.752-0.774c0-0.491-0.28-0.786-0.752-0.786
			H35.352z M35.837,125.894h-0.73v-1.784h0.73c0.532,0,0.875,0.353,0.875,0.897C36.711,125.545,36.369,125.894,35.837,125.894z
			 M35.352,125.648h0.485c0.568,0,0.629-0.449,0.629-0.641c0-0.408-0.236-0.652-0.629-0.652h-0.485V125.648z"/>
	</g>
	<g>
		<path d="M45.39,124.124v-0.145h1.599v0.145c-0.568,0-0.656,0.109-0.656,0.792v1.64c0,1.073-0.738,1.642-1.647,1.642
			c-0.902,0-1.641-0.568-1.641-1.642v-1.64c0-0.683-0.081-0.792-0.649-0.792v-0.145h1.845v0.145c-0.568,0-0.65,0.109-0.65,0.792
			v1.674c0,0.889,0.514,1.299,1.198,1.299c0.716,0,1.256-0.41,1.256-1.299v-1.674C46.046,124.233,45.957,124.124,45.39,124.124z"/>
		<path d="M44.686,128.32c-1.054,0-1.762-0.711-1.762-1.765v-1.64c0-0.649-0.053-0.669-0.526-0.669h-0.123v-0.388h2.09v0.388h-0.123
			c-0.474,0-0.526,0.02-0.526,0.669v1.674c0,0.748,0.391,1.176,1.075,1.176c0.72,0,1.133-0.428,1.133-1.176v-1.674
			c0-0.644-0.06-0.669-0.533-0.669h-0.123v-0.388h1.845v0.388h-0.124c-0.473,0-0.534,0.025-0.534,0.669v1.64
			C46.455,127.609,45.744,128.32,44.686,128.32z M42.935,124.102c0.194,0.123,0.234,0.37,0.234,0.813v1.64
			c0,0.923,0.596,1.519,1.517,1.519c0.926,0,1.524-0.596,1.524-1.519v-1.64c0-0.443,0.042-0.69,0.236-0.813h-0.513
			c0.196,0.123,0.235,0.37,0.235,0.813v1.674c0,0.893-0.515,1.423-1.378,1.423c-0.827,0-1.32-0.53-1.32-1.423v-1.674
			c0-0.443,0.04-0.69,0.234-0.813H42.935z"/>
	</g>
	<g>
		<path d="M54.497,127.07c0.404,0.478,0.861,0.818,1.272,0.867v0.145H54.64l-1.353-1.798h-0.321v0.854c0,0.686,0.081,0.8,0.649,0.8
			v0.145H51.77v-0.145c0.568,0,0.649-0.114,0.649-0.8v-2.222c0-0.683-0.081-0.792-0.649-0.792v-0.145h1.805
			c0.949,0,1.469,0.521,1.469,1.156c0,0.593-0.445,1.063-1.217,1.148L54.497,127.07z M54.435,125.135
			c0-0.493-0.272-0.902-0.868-0.902h-0.601v1.804h0.601C54.162,126.037,54.435,125.634,54.435,125.135z"/>
		<path d="M55.89,128.203h-1.311l-1.353-1.798h-0.138v0.732c0,0.651,0.06,0.676,0.527,0.676h0.122v0.39h-2.09v-0.39h0.123
			c0.467,0,0.526-0.024,0.526-0.676v-2.222c0-0.649-0.051-0.669-0.526-0.669h-0.123v-0.388h1.928c1.099,0,1.592,0.639,1.592,1.276
			c0,0.618-0.427,1.087-1.105,1.235l0.528,0.618c0.414,0.493,0.837,0.786,1.192,0.826l0.108,0.012V128.203z M54.701,127.959h0.697
			c-0.322-0.143-0.665-0.42-0.996-0.812l-0.82-0.96l0.231-0.025c0.683-0.073,1.107-0.468,1.107-1.026
			c0-0.617-0.541-1.033-1.346-1.033h-1.268c0.194,0.123,0.235,0.37,0.235,0.813v2.222c0,0.449-0.041,0.697-0.237,0.822h0.773
			c-0.196-0.125-0.237-0.373-0.237-0.822v-0.976h0.507L54.701,127.959z M53.566,126.16h-0.724v-2.05h0.724
			c0.602,0,0.991,0.402,0.991,1.025C54.558,125.767,54.178,126.16,53.566,126.16z M53.088,125.914h0.479
			c0.672,0,0.745-0.544,0.745-0.778c0-0.489-0.278-0.78-0.745-0.78h-0.479V125.914z"/>
	</g>
	<g>
		<path d="M62.082,127.137c0,0.686,0.083,0.8,0.649,0.8v0.145h-1.845v-0.145c0.569,0,0.651-0.114,0.651-0.8v-0.663l-1.136-1.757
			c-0.293-0.451-0.506-0.594-0.99-0.594v-0.145h1.947v0.145c-0.573,0-0.573,0.206-0.369,0.519l0.985,1.503l0.999-1.503
			c0.238-0.368,0.203-0.519-0.371-0.519v-0.145h1.6v0.145c-0.573,0-0.717,0.19-0.99,0.594l-1.129,1.709V127.137z"/>
		<path d="M62.854,128.203h-2.09v-0.39h0.122c0.469,0,0.527-0.024,0.527-0.676v-0.628l-1.115-1.725
			c-0.279-0.428-0.461-0.538-0.887-0.538h-0.122v-0.388h2.192v0.388h-0.123c-0.316,0-0.362,0.065-0.366,0.073
			c-0.005,0.01-0.024,0.065,0.1,0.258l0.882,1.346l0.896-1.349c0.142-0.216,0.119-0.265,0.118-0.267
			c-0.002-0.002-0.039-0.062-0.386-0.062h-0.123v-0.388h1.845v0.388h-0.122c-0.521,0-0.629,0.158-0.888,0.54l-1.108,1.678v0.673
			c0,0.651,0.059,0.676,0.526,0.676h0.123V128.203z M61.422,127.959h0.773c-0.196-0.125-0.236-0.373-0.236-0.822v-0.746l0.096-0.146
			l-0.083,0.124l-1.086-1.659c-0.097-0.148-0.198-0.344-0.11-0.507c0.021-0.039,0.052-0.073,0.09-0.101H59.96
			c0.198,0.097,0.36,0.268,0.543,0.549l1.156,1.787v0.699C61.659,127.586,61.619,127.834,61.422,127.959z M63.124,124.102
			c0.034,0.025,0.059,0.056,0.078,0.089c0.067,0.125,0.018,0.271-0.065,0.418c0.163-0.237,0.295-0.408,0.501-0.507H63.124z"/>
	</g>
	<g>
		<path d="M74.548,127.937c0.568,0,0.65-0.114,0.65-0.8v-2.222c0-0.683-0.083-0.792-0.65-0.792v-0.145h1.854
			c1.592,0,2.282,0.925,2.282,2.052c0,1.126-0.69,2.051-2.282,2.051h-1.854V127.937z M75.747,127.035
			c0,0.685,0.075,0.794,0.634,0.794h0.028c1.333,0,1.62-0.998,1.62-1.798s-0.287-1.798-1.62-1.798c-0.081,0-0.662,0-0.662,0V127.035
			z"/>
		<path d="M76.402,128.203h-1.976v-0.39h0.122c0.467,0,0.527-0.024,0.527-0.676v-2.222c0-0.649-0.053-0.669-0.527-0.669h-0.122
			v-0.388h1.976c1.505,0,2.405,0.812,2.405,2.172S77.907,128.203,76.402,128.203z M75.084,127.959h1.318
			c1.353,0,2.16-0.723,2.16-1.929c0-1.208-0.807-1.929-2.16-1.929h-1.315c0.195,0.123,0.235,0.37,0.235,0.813v2.222
			C75.321,127.586,75.282,127.834,75.084,127.959z M76.408,127.949c-0.686,0-0.785-0.203-0.785-0.914v-2.925h0.785
			c1.516,0,1.742,1.202,1.742,1.921C78.15,126.748,77.924,127.949,76.408,127.949z M75.868,124.355v2.68
			c0,0.647,0.051,0.671,0.512,0.671c1.266,0,1.525-0.911,1.525-1.675c0-0.763-0.259-1.676-1.497-1.676H75.868z"/>
	</g>
	<g>
		<path d="M83.8,127.937c0.568,0,0.649-0.114,0.649-0.8v-2.222c0-0.683-0.082-0.792-0.649-0.792v-0.145h3.117l0.062,0.903h-0.144
			l-0.036-0.137c-0.095-0.356-0.163-0.513-0.791-0.513h-1.013v1.55h0.341c0.685,0,0.793-0.081,0.793-0.655h0.145v1.564h-0.145
			c0-0.574-0.108-0.655-0.793-0.655h-0.341v0.998c0,0.685,0.083,0.794,0.65,0.794h0.587c0.628,0,0.703-0.156,0.793-0.521
			l0.033-0.137h0.144l-0.055,0.91H83.8V127.937z"/>
		<path d="M87.265,128.203h-3.586v-0.39H83.8c0.467,0,0.527-0.024,0.527-0.676v-2.222c0-0.649-0.053-0.669-0.527-0.669h-0.122
			v-0.388h3.353l0.079,1.146H86.74l-0.059-0.228c-0.083-0.314-0.112-0.422-0.671-0.422h-0.889v1.308h0.217
			c0.649,0,0.671-0.054,0.671-0.535v-0.12h0.388v1.808h-0.388v-0.123c0-0.479-0.021-0.532-0.671-0.532h-0.217v0.875
			c0,0.647,0.052,0.671,0.527,0.671h0.587c0.568,0,0.597-0.117,0.674-0.426l0.055-0.231h0.371L87.265,128.203z M84.336,127.959
			h2.698l0.021-0.347c-0.111,0.228-0.31,0.336-0.821,0.336h-0.587c-0.672,0-0.772-0.203-0.772-0.914v-1.121h0.463
			c0.444,0,0.691,0.042,0.814,0.237v-0.48c-0.124,0.198-0.37,0.235-0.814,0.235h-0.463v-1.796h1.135c0.51,0,0.704,0.103,0.816,0.337
			l-0.022-0.345h-2.464c0.194,0.123,0.234,0.37,0.234,0.813v2.222C84.573,127.586,84.532,127.834,84.336,127.959z"/>
	</g>
	<g>
		<path d="M92.438,128.197h-0.137v-1.505h0.137c0,0,0.013,1.233,1.263,1.233c0.487,0,0.855-0.316,0.855-0.754
			c0-0.313-0.315-0.582-0.786-0.826l-0.656-0.337c-0.397-0.203-0.759-0.605-0.759-1.126c0-0.568,0.472-1.018,1.134-1.018
			c0.404,0,0.63,0.13,0.833,0.281c0.084-0.069,0.166-0.173,0.199-0.315h0.137v1.503h-0.144c-0.049-0.547-0.252-1.198-1.044-1.198
			c-0.385,0-0.664,0.27-0.664,0.61c0,0.354,0.239,0.538,0.826,0.848l0.656,0.334c0.526,0.266,0.71,0.662,0.71,1.04
			c0,0.742-0.593,1.229-1.298,1.229c-0.52,0-0.848-0.271-1.067-0.321C92.553,127.943,92.472,128.046,92.438,128.197z"/>
		<path d="M93.702,128.32c-0.379,0-0.663-0.137-0.871-0.234c-0.062-0.027-0.116-0.053-0.165-0.071
			c-0.054,0.058-0.091,0.129-0.108,0.208l-0.022,0.098h-0.357v-1.749h0.381l0.001,0.119c0.001,0.048,0.03,1.11,1.141,1.11
			c0.424,0,0.731-0.263,0.731-0.629c0-0.23-0.235-0.464-0.72-0.719l-0.655-0.335c-0.399-0.206-0.827-0.638-0.827-1.235
			c0-0.651,0.541-1.143,1.257-1.143c0.394,0,0.635,0.119,0.821,0.245c0.039-0.045,0.074-0.106,0.092-0.182l0.021-0.098h0.358v1.751
			h-0.379l-0.01-0.111c-0.064-0.729-0.366-1.085-0.922-1.085c-0.313,0-0.54,0.204-0.54,0.485c0,0.27,0.155,0.422,0.759,0.738
			l0.656,0.335c0.501,0.251,0.778,0.661,0.778,1.148C95.124,127.738,94.513,128.32,93.702,128.32z M92.603,127.744l0.059,0.012
			c0.084,0.02,0.172,0.06,0.274,0.108c0.197,0.094,0.441,0.21,0.766,0.21c0.681,0,1.176-0.467,1.176-1.106
			c0-0.277-0.111-0.659-0.644-0.931l-0.657-0.335c-0.541-0.281-0.894-0.501-0.894-0.956c0-0.416,0.338-0.73,0.787-0.73
			c0.389,0,0.853,0.148,1.064,0.788v-0.709c-0.043,0.062-0.092,0.108-0.134,0.145l-0.074,0.062l-0.077-0.058
			c-0.176-0.131-0.379-0.256-0.761-0.256c-0.576,0-1.012,0.385-1.012,0.896c0,0.489,0.358,0.846,0.693,1.018l0.656,0.335
			c0.366,0.191,0.854,0.499,0.854,0.937c0,0.499-0.421,0.875-0.978,0.875c-0.793,0-1.132-0.458-1.278-0.842v0.723
			c0.038-0.054,0.082-0.103,0.133-0.146L92.603,127.744z"/>
	</g>
	<g>
		<path d="M99.945,128.082v-0.145c0.568,0,0.649-0.114,0.649-0.8v-2.222c0-0.683-0.082-0.792-0.649-0.792v-0.145h1.845v0.145
			c-0.567,0-0.649,0.109-0.649,0.792v2.222c0,0.686,0.082,0.8,0.649,0.8v0.145H99.945z"/>
		<path d="M101.914,128.203h-2.091v-0.39h0.123c0.467,0,0.526-0.024,0.526-0.676v-2.222c0-0.649-0.052-0.669-0.526-0.669h-0.123
			v-0.388h2.091v0.388h-0.124c-0.475,0-0.526,0.02-0.526,0.669v2.222c0,0.651,0.059,0.676,0.526,0.676h0.124V128.203z
			 M100.481,127.959h0.774c-0.196-0.125-0.237-0.373-0.237-0.822v-2.222c0-0.443,0.04-0.69,0.234-0.813h-0.769
			c0.195,0.123,0.235,0.37,0.235,0.813v2.222C100.718,127.586,100.677,127.834,100.481,127.959z"/>
	</g>
	<g>
		<path d="M109.646,126.524v-0.141h1.79v0.141c-0.566,0-0.648,0.112-0.648,0.798v0.519c-0.759,0-1.066,0.356-1.778,0.356
			c-1.154,0-2.099-0.977-2.099-2.166c0-1.19,0.944-2.166,2.099-2.166c0.479,0,0.923,0.212,1.273,0.58
			c0.088-0.067,0.197-0.218,0.231-0.391h0.137v1.505h-0.137c-0.186-0.889-0.718-1.43-1.484-1.43c-1.094,0-1.489,1.054-1.489,1.901
			c0,0.846,0.356,1.873,1.62,1.873c0.593,0,1.127-0.323,1.127-0.937C110.289,126.674,110.117,126.524,109.646,126.524z"/>
		<path d="M109.01,128.32c-1.224,0-2.221-1.028-2.221-2.289c0-1.262,0.997-2.291,2.221-2.291c0.462,0,0.909,0.188,1.272,0.532
			c0.049-0.065,0.094-0.15,0.112-0.241l0.021-0.097h0.36v1.748h-0.36l-0.021-0.099c-0.177-0.846-0.672-1.331-1.364-1.331
			c-1.079,0-1.367,1.119-1.367,1.778c0,0.526,0.146,1.748,1.498,1.748c0.5,0,1.005-0.251,1.005-0.812c0-0.162-0.04-0.323-0.52-0.323
			h-0.123v-0.382h2.036v0.382h-0.123c-0.466,0-0.524,0.024-0.524,0.676v0.644h-0.124c-0.365,0-0.616,0.085-0.88,0.176
			C109.648,128.226,109.38,128.32,109.01,128.32z M109.01,123.987c-1.089,0-1.975,0.917-1.975,2.044
			c0,1.126,0.886,2.043,1.975,2.043c0.33,0,0.566-0.081,0.818-0.166c0.243-0.083,0.495-0.17,0.837-0.187v-0.401
			c0-0.438,0.039-0.688,0.225-0.812h-0.715c0.133,0.08,0.237,0.22,0.237,0.46c0,0.624-0.516,1.058-1.251,1.058
			c-1.617,0-1.744-1.527-1.744-1.994c0-1.008,0.5-2.023,1.613-2.023c0.229,0,0.44,0.043,0.63,0.128
			C109.453,124.039,109.234,123.987,109.01,123.987z M110.003,124.353c0.225,0.192,0.404,0.462,0.525,0.801v-0.812
			c-0.051,0.087-0.113,0.156-0.17,0.2l-0.088,0.067l-0.076-0.081C110.132,124.464,110.068,124.407,110.003,124.353z"/>
	</g>
	<g>
		<path d="M119.607,124.916c0-0.683-0.082-0.792-0.649-0.792v-0.145h1.558v0.145c-0.565,0-0.656,0.109-0.656,0.792v3.281h-0.156
			l-2.782-3.438v2.378c0,0.686,0.088,0.8,0.656,0.8v0.145h-1.558v-0.145c0.568,0,0.65-0.114,0.65-0.8v-2.222
			c0-0.683-0.082-0.792-0.65-0.792v-0.145h0.964l2.624,3.253V124.916z"/>
		<path d="M119.982,128.32h-0.339l-2.6-3.216v2.033c0,0.651,0.061,0.676,0.533,0.676h0.123v0.39h-1.803v-0.39h0.123
			c0.467,0,0.526-0.024,0.526-0.676v-2.222c0-0.649-0.053-0.669-0.526-0.669h-0.123v-0.388h1.145l2.442,3.027v-1.971
			c0-0.649-0.052-0.669-0.526-0.669h-0.123v-0.388h1.803v0.388h-0.123c-0.473,0-0.533,0.025-0.533,0.669V128.32z M116.798,124.413
			l2.939,3.63v-3.127c0-0.443,0.04-0.69,0.235-0.813h-0.477c0.195,0.123,0.234,0.37,0.234,0.813v2.663l-2.806-3.477h-0.366
			c0.193,0.123,0.233,0.37,0.233,0.813v2.222c0,0.449-0.04,0.697-0.236,0.822h0.488c-0.202-0.125-0.246-0.377-0.246-0.822V124.413z"
			/>
	</g>
	<g>
		<path d="M132.519,127.137c0,0.686,0.081,0.8,0.649,0.8v0.145h-1.845v-0.145c0.567,0,0.649-0.114,0.649-0.8v-2.222
			c0-0.683-0.082-0.792-0.649-0.792v-0.145h1.845v0.145c-0.568,0-0.649,0.109-0.649,0.792v0.861h2.324v-0.861
			c0-0.683-0.089-0.792-0.657-0.792v-0.145h1.851v0.145c-0.572,0-0.655,0.109-0.655,0.792v2.222c0,0.686,0.083,0.8,0.655,0.8v0.145
			h-1.851v-0.145c0.567,0,0.657-0.114,0.657-0.8v-1.106h-2.324V127.137z"/>
		<path d="M136.16,128.203h-2.097v-0.39h0.123c0.473,0,0.533-0.024,0.533-0.676v-0.984h-2.078v0.984c0,0.651,0.06,0.676,0.527,0.676
			h0.122v0.39h-2.09v-0.39h0.124c0.467,0,0.525-0.024,0.525-0.676v-2.222c0-0.649-0.051-0.669-0.525-0.669H131.2v-0.388h2.09v0.388
			h-0.122c-0.475,0-0.527,0.02-0.527,0.669v0.741h2.078v-0.741c0-0.644-0.06-0.669-0.533-0.669h-0.123v-0.388h2.097v0.388h-0.123
			c-0.479,0-0.532,0.02-0.532,0.669v2.222c0,0.651,0.06,0.676,0.532,0.676h0.123V128.203z M134.721,127.959h0.776
			c-0.198-0.125-0.239-0.373-0.239-0.822v-2.222c0-0.443,0.041-0.69,0.237-0.813h-0.766c0.196,0.123,0.235,0.37,0.235,0.813v0.984
			h-2.569v-0.984c0-0.443,0.04-0.69,0.234-0.813h-0.768c0.194,0.123,0.234,0.37,0.234,0.813v2.222c0,0.449-0.041,0.697-0.236,0.822
			h0.773c-0.196-0.125-0.237-0.373-0.237-0.822v-1.229h2.569v1.229C134.965,127.583,134.922,127.834,134.721,127.959z"/>
	</g>
	<g>
		<path d="M143.432,128.197c-1.25,0-2.275-0.977-2.275-2.166c0-1.19,1.025-2.166,2.275-2.166c1.256,0,2.282,0.976,2.282,2.166
			C145.713,127.22,144.688,128.197,143.432,128.197z M141.806,126.031c0,0.846,0.45,1.895,1.626,1.895
			c1.182,0,1.634-1.049,1.634-1.895c0-0.848-0.452-1.901-1.634-1.901C142.256,124.129,141.806,125.183,141.806,126.031z"/>
		<path d="M143.432,128.32c-1.323,0-2.399-1.028-2.399-2.289c0-1.262,1.076-2.291,2.399-2.291c1.325,0,2.404,1.029,2.404,2.291
			C145.835,127.292,144.757,128.32,143.432,128.32z M143.432,123.987c-1.187,0-2.152,0.917-2.152,2.044
			c0,1.126,0.965,2.043,2.152,2.043c1.19,0,2.159-0.917,2.159-2.043C145.59,124.904,144.622,123.987,143.432,123.987z
			 M143.432,128.046c-1.201,0-1.75-1.046-1.75-2.016c0-0.975,0.549-2.023,1.75-2.023c1.208,0,1.757,1.049,1.757,2.023
			C145.188,127,144.639,128.046,143.432,128.046z M143.432,124.252c-1.187,0-1.503,1.119-1.503,1.778c0,0.657,0.316,1.77,1.503,1.77
			c1.193,0,1.511-1.112,1.511-1.77C144.943,125.372,144.625,124.252,143.432,124.252z"/>
	</g>
	<g>
		<path d="M153.561,124.124v-0.145h1.6v0.145c-0.565,0-0.655,0.109-0.655,0.792v1.64c0,1.073-0.738,1.642-1.646,1.642
			c-0.903,0-1.642-0.568-1.642-1.642v-1.64c0-0.683-0.081-0.792-0.649-0.792v-0.145h1.847v0.145c-0.568,0-0.649,0.109-0.649,0.792
			v1.674c0,0.889,0.512,1.299,1.195,1.299c0.718,0,1.258-0.41,1.258-1.299v-1.674C154.218,124.233,154.128,124.124,153.561,124.124z
			"/>
		<path d="M152.858,128.32c-1.055,0-1.764-0.711-1.764-1.765v-1.64c0-0.649-0.053-0.669-0.526-0.669h-0.124v-0.388h2.091v0.388
			h-0.122c-0.475,0-0.527,0.02-0.527,0.669v1.674c0,0.748,0.391,1.176,1.072,1.176c0.721,0,1.134-0.428,1.134-1.176v-1.674
			c0-0.644-0.06-0.669-0.534-0.669h-0.122v-0.388h1.845v0.388h-0.124c-0.472,0-0.533,0.025-0.533,0.669v1.64
			C154.627,127.609,153.917,128.32,152.858,128.32z M151.106,124.102c0.194,0.123,0.233,0.37,0.233,0.813v1.64
			c0,0.923,0.597,1.519,1.519,1.519c0.926,0,1.523-0.596,1.523-1.519v-1.64c0-0.443,0.041-0.69,0.236-0.813h-0.514
			c0.197,0.123,0.236,0.37,0.236,0.813v1.674c0,0.893-0.515,1.423-1.38,1.423c-0.825,0-1.318-0.53-1.318-1.423v-1.674
			c0-0.443,0.04-0.69,0.233-0.813H151.106z"/>
	</g>
	<g>
		<path d="M160.217,128.197h-0.138v-1.505h0.138c0,0,0.014,1.233,1.264,1.233c0.485,0,0.854-0.316,0.854-0.754
			c0-0.313-0.315-0.582-0.786-0.826l-0.656-0.337c-0.397-0.203-0.759-0.605-0.759-1.126c0-0.568,0.472-1.018,1.135-1.018
			c0.404,0,0.629,0.13,0.832,0.281c0.084-0.069,0.167-0.173,0.2-0.315h0.136v1.503h-0.143c-0.05-0.547-0.253-1.198-1.045-1.198
			c-0.384,0-0.664,0.27-0.664,0.61c0,0.354,0.239,0.538,0.827,0.848l0.656,0.334c0.526,0.266,0.711,0.662,0.711,1.04
			c0,0.742-0.594,1.229-1.298,1.229c-0.52,0-0.849-0.271-1.067-0.321C160.332,127.943,160.25,128.046,160.217,128.197z"/>
		<path d="M161.481,128.32c-0.381,0-0.664-0.137-0.871-0.234c-0.062-0.027-0.117-0.053-0.164-0.071
			c-0.055,0.058-0.091,0.129-0.109,0.208l-0.021,0.098h-0.358v-1.749h0.38l0.002,0.119c0,0.048,0.029,1.11,1.142,1.11
			c0.424,0,0.731-0.263,0.731-0.629c0-0.23-0.235-0.464-0.72-0.719l-0.655-0.335c-0.399-0.206-0.826-0.638-0.826-1.235
			c0-0.651,0.541-1.143,1.258-1.143c0.393,0,0.633,0.119,0.821,0.245c0.037-0.045,0.073-0.106,0.091-0.186l0.022-0.094h0.357v1.751
			h-0.379l-0.01-0.111c-0.064-0.729-0.365-1.085-0.922-1.085c-0.313,0-0.54,0.204-0.54,0.485c0,0.27,0.156,0.422,0.761,0.738
			l0.654,0.335c0.501,0.251,0.779,0.661,0.779,1.148C162.903,127.738,162.292,128.32,161.481,128.32z M160.381,127.744l0.059,0.012
			c0.084,0.02,0.172,0.06,0.275,0.108c0.196,0.094,0.441,0.21,0.766,0.21c0.681,0,1.175-0.467,1.175-1.106
			c0-0.277-0.112-0.659-0.644-0.931l-0.657-0.335c-0.54-0.281-0.892-0.501-0.892-0.956c0-0.416,0.337-0.73,0.785-0.73
			c0.39,0,0.854,0.148,1.065,0.788v-0.709c-0.044,0.062-0.093,0.11-0.135,0.145l-0.074,0.062l-0.077-0.058
			c-0.176-0.131-0.378-0.256-0.759-0.256c-0.578,0-1.012,0.385-1.012,0.896c0,0.489,0.357,0.846,0.692,1.018l0.657,0.335
			c0.366,0.191,0.853,0.499,0.853,0.937c0,0.499-0.419,0.875-0.977,0.875c-0.794,0-1.134-0.458-1.278-0.842v0.723
			c0.036-0.054,0.081-0.103,0.133-0.146L160.381,127.744z"/>
	</g>
	<g>
		<path d="M167.724,127.937c0.568,0,0.65-0.114,0.65-0.8v-2.222c0-0.683-0.083-0.792-0.65-0.792v-0.145h3.118l0.062,0.903h-0.144
			l-0.035-0.137c-0.095-0.356-0.164-0.513-0.792-0.513h-1.011v1.55h0.34c0.684,0,0.793-0.081,0.793-0.655h0.144v1.564h-0.144
			c0-0.574-0.109-0.655-0.793-0.655h-0.34v0.998c0,0.685,0.081,0.794,0.648,0.794h0.587c0.628,0,0.703-0.156,0.794-0.521
			l0.033-0.137h0.144l-0.056,0.91h-3.349V127.937z"/>
		<path d="M171.188,128.203h-3.586v-0.39h0.122c0.467,0,0.527-0.024,0.527-0.676v-2.222c0-0.649-0.053-0.669-0.527-0.669h-0.122
			v-0.388h3.354l0.078,1.146h-0.37l-0.059-0.228c-0.084-0.314-0.112-0.422-0.672-0.422h-0.89v1.308h0.219
			c0.648,0,0.67-0.054,0.67-0.535v-0.12h0.388v1.808h-0.388v-0.123c0-0.479-0.021-0.532-0.67-0.532h-0.219v0.875
			c0,0.647,0.052,0.671,0.527,0.671h0.589c0.567,0,0.597-0.117,0.673-0.426l0.056-0.231h0.371L171.188,128.203z M168.26,127.959
			h2.697l0.021-0.345c-0.111,0.226-0.31,0.334-0.819,0.334h-0.589c-0.67,0-0.772-0.203-0.772-0.914v-1.121h0.464
			c0.443,0,0.691,0.042,0.813,0.237v-0.48c-0.123,0.198-0.37,0.235-0.813,0.235h-0.464v-1.796h1.135c0.51,0,0.705,0.103,0.817,0.337
			l-0.023-0.345h-2.464c0.193,0.123,0.234,0.37,0.234,0.813v2.222C168.497,127.586,168.456,127.834,168.26,127.959z"/>
	</g>
</g>
<g>
	<g>
		<path d="M256.476,128.062v-0.146c0.468,0,0.559-0.117,0.559-0.815v-1.067c0-0.699-0.169-0.767-0.672-0.755v-0.145l1.158-0.231
			v2.198c0,0.698,0.093,0.815,0.56,0.815v0.146H256.476z"/>
		<path d="M258.204,128.187h-1.852v-0.393h0.123c0.352,0,0.436,0,0.436-0.694v-1.067c0-0.632-0.133-0.632-0.45-0.632l-0.221,0.004
			v-0.372l1.403-0.279v2.347c0,0.694,0.084,0.694,0.437,0.694h0.124V128.187z M256.929,127.939h0.697
			c-0.188-0.126-0.227-0.386-0.227-0.839v-2.05l-0.659,0.131c0.312,0.075,0.415,0.314,0.415,0.852v1.067
			C257.155,127.553,257.115,127.813,256.929,127.939z"/>
	</g>
	<g>
		<path d="M262.083,128.179c-0.654,0-1.004-0.381-1.004-0.612c0-0.091,0.062-0.168,0.194-0.168c0.245,0,0.146,0.489,0.81,0.489
			c0.488,0,0.761-0.362,0.761-0.788c0-0.439-0.215-0.805-0.704-0.805c-0.286,0-0.593,0.177-0.67,0.512h-0.272l0.173-1.765h1.814
			l-0.07,0.404h-1.5l-0.083,0.802c0.162-0.146,0.427-0.237,0.67-0.237c0.664,0,1.137,0.488,1.137,1.089
			C263.338,127.694,262.773,128.179,262.083,128.179z"/>
		<path d="M262.083,128.303c-0.726,0-1.127-0.436-1.127-0.736c0-0.141,0.1-0.289,0.317-0.289c0.16,0,0.234,0.117,0.294,0.214
			c0.085,0.133,0.171,0.273,0.516,0.273c0.44,0,0.638-0.333,0.638-0.665c0-0.204-0.058-0.68-0.581-0.68
			c-0.22,0-0.485,0.129-0.551,0.414l-0.021,0.093h-0.505l0.197-2.01h2.07l-0.112,0.651h-1.493l-0.045,0.438
			c0.158-0.075,0.344-0.116,0.522-0.116c0.718,0,1.259,0.519,1.259,1.21C263.461,127.763,262.844,128.303,262.083,128.303z
			 M261.273,127.522c-0.072,0-0.072,0.029-0.072,0.045c0,0.167,0.312,0.491,0.882,0.491c0.625,0,1.133-0.432,1.133-0.958
			c0-0.551-0.437-0.967-1.014-0.967c-0.217,0-0.453,0.083-0.589,0.206l-0.237,0.216l0.129-1.231h1.507l0.027-0.158h-1.557
			l-0.15,1.519h0.046c0.128-0.349,0.474-0.511,0.762-0.511c0.51,0,0.827,0.356,0.827,0.927c0,0.534-0.363,0.91-0.884,0.91
			c-0.481,0-0.627-0.235-0.725-0.39C261.31,127.542,261.293,127.522,261.273,127.522z"/>
	</g>
	<g>
		<path d="M267.142,128.179c-0.615,0-1.153-0.418-1.153-0.871c0-0.487,0.392-0.726,0.77-0.88c-0.294-0.18-0.607-0.411-0.607-0.732
			c0-0.445,0.474-0.774,0.991-0.774c0.523,0,0.996,0.313,0.996,0.713c0,0.343-0.355,0.559-0.683,0.705
			c0.404,0.194,0.836,0.426,0.836,0.915C268.291,127.783,267.77,128.179,267.142,128.179z M266.987,126.555
			c-0.272,0.154-0.523,0.356-0.523,0.753c0,0.342,0.251,0.607,0.678,0.607c0.433,0,0.689-0.266,0.689-0.58
			C267.831,126.954,267.37,126.751,266.987,126.555z M267.142,125.181c-0.301,0-0.525,0.196-0.525,0.432
			c0,0.281,0.336,0.476,0.609,0.613c0.229-0.116,0.446-0.32,0.446-0.613C267.672,125.377,267.455,125.181,267.142,125.181z"/>
		<path d="M267.142,128.303c-0.681,0-1.275-0.465-1.275-0.993c0-0.478,0.321-0.739,0.639-0.901
			c-0.259-0.183-0.479-0.408-0.479-0.713c0-0.493,0.5-0.895,1.115-0.895c0.606,0,1.118,0.38,1.118,0.833
			c0,0.335-0.262,0.555-0.53,0.705c0.327,0.179,0.685,0.439,0.685,0.915C268.414,127.84,267.854,128.303,267.142,128.303z
			 M266.729,126.575c-0.427,0.188-0.617,0.418-0.617,0.735c0,0.392,0.49,0.748,1.029,0.748c0.577,0,1.027-0.354,1.027-0.804
			c0-0.402-0.348-0.601-0.768-0.806l-0.175-0.084h-0.001l-0.062-0.029l0,0c-0.221-0.115-0.67-0.347-0.67-0.723
			c0-0.311,0.284-0.555,0.647-0.555c0.372,0,0.653,0.24,0.653,0.555c0,0.21-0.092,0.4-0.262,0.553
			c0.328-0.165,0.482-0.337,0.482-0.531c0-0.312-0.409-0.59-0.874-0.59c-0.471,0-0.87,0.301-0.87,0.651
			c0,0.256,0.278,0.462,0.551,0.63l0.154,0.095l0.007-0.004l0.14,0.069c0.39,0.198,0.832,0.418,0.832,0.852
			c0,0.406-0.343,0.701-0.813,0.701s-0.801-0.301-0.801-0.729C266.341,126.952,266.522,126.73,266.729,126.575z M266.99,126.694
			c-0.245,0.148-0.403,0.318-0.403,0.616c0,0.293,0.218,0.484,0.555,0.484c0.333,0,0.567-0.189,0.567-0.457
			c0-0.283-0.354-0.459-0.694-0.63L266.99,126.694z M267.142,125.304c-0.227,0-0.401,0.135-0.401,0.309
			c0,0.188,0.246,0.351,0.483,0.476c0.142-0.084,0.325-0.238,0.325-0.476C267.549,125.437,267.373,125.304,267.142,125.304z"/>
	</g>
	<g>
		<path d="M274.234,127.894l1.276-1.143c0.266-0.24,0.426-0.539,0.426-0.79c0-0.515-0.307-0.745-0.725-0.745
			c-0.399,0-0.859,0.474-0.469,1.046l-0.208,0.216c-0.733-0.501-0.351-1.557,0.725-1.557c0.601,0,1.157,0.356,1.157,0.935
			c0,0.561-0.557,0.979-0.557,0.979l-0.942,0.823h1.592l-0.079,0.404h-2.196V127.894z"/>
		<path d="M276.531,128.187h-2.419v-0.347l1.317-1.183c0.236-0.209,0.384-0.477,0.384-0.696c0-0.513-0.327-0.624-0.602-0.624
			c-0.173,0-0.354,0.115-0.44,0.277c-0.063,0.121-0.104,0.318,0.074,0.578l0.056,0.081l-0.352,0.362l-0.085-0.058
			c-0.361-0.245-0.511-0.642-0.391-1.025c0.142-0.457,0.605-0.752,1.187-0.752c0.619,0,1.279,0.37,1.279,1.055
			c0,0.614-0.582,1.058-0.604,1.075l-0.691,0.604h1.413L276.531,128.187z M274.367,127.939h1.963l0.03-0.158h-1.77l1.189-1.039
			c0.011-0.008,0.515-0.396,0.515-0.886c0-0.526-0.533-0.812-1.034-0.812c-0.57,0-0.87,0.312-0.953,0.58
			c-0.078,0.254,0.002,0.507,0.214,0.691l0.066-0.071c-0.189-0.339-0.105-0.608-0.033-0.743c0.128-0.245,0.393-0.407,0.657-0.407
			c0.53,0,0.848,0.322,0.848,0.867c0,0.291-0.175,0.619-0.467,0.881L274.367,127.939z"/>
	</g>
	<g>
		<path d="M281.551,125.229l-1.346,2.673c-0.112,0.216-0.182,0.364-0.391,0.307c-0.104-0.029-0.244-0.182-0.071-0.453l1.466-2.309
			h-1.289c-0.302,0-0.566,0.083-0.643,0.388l-0.035,0.143h-0.16l0.168-0.935h2.301V125.229z"/>
		<path d="M279.896,128.345c-0.034,0-0.074-0.008-0.113-0.016c-0.099-0.028-0.183-0.107-0.219-0.206
			c-0.035-0.087-0.05-0.235,0.076-0.436l1.346-2.119h-1.066c-0.399,0-0.489,0.159-0.524,0.297l-0.058,0.234h-0.402l0.212-1.183
			h2.526l-0.014,0.366l-1.347,2.674C280.209,128.163,280.116,128.345,279.896,128.345z M281.112,125.829l-1.265,1.994
			c-0.056,0.085-0.074,0.162-0.056,0.214c0.014,0.035,0.041,0.051,0.056,0.055c0.097,0.024,0.131-0.02,0.241-0.233L281.112,125.829z
			 M279.352,125.166l-0.069,0.39c0.129-0.154,0.343-0.231,0.638-0.231h1.447l0.062-0.123v-0.035H279.352z"/>
	</g>
	<g>
		<path d="M284.585,125.312c-0.641,0-0.697,0.12-0.779,0.449l-0.037,0.139h-0.14l0.043-0.857h3.111l0.049,0.857h-0.146l-0.035-0.139
			c-0.085-0.329-0.166-0.449-0.809-0.449h-0.363v1.794c0,0.698,0.091,0.815,0.56,0.815v0.141h-1.605v-0.141
			c0.468,0,0.558-0.117,0.558-0.815v-1.794H284.585z"/>
		<path d="M286.16,128.187h-1.851V127.8h0.123c0.352,0,0.434,0,0.434-0.694v-1.669h-0.281c-0.571,0-0.592,0.075-0.661,0.354
			l-0.061,0.232H283.5l0.055-1.105h3.346l0.062,1.105h-0.37l-0.06-0.232c-0.066-0.257-0.092-0.354-0.69-0.354h-0.24v1.669
			c0,0.694,0.084,0.694,0.437,0.694h0.122V128.187z M284.896,127.939h0.677c-0.176-0.128-0.216-0.388-0.216-0.833v-1.915h0.485
			c0.521,0,0.729,0.081,0.844,0.303l-0.018-0.328h-2.881l-0.016,0.316c0.113-0.216,0.313-0.291,0.813-0.291h0.528v1.915
			C285.113,127.551,285.073,127.811,284.896,127.939z"/>
	</g>
	<g>
		<path d="M291.471,126.333v-0.345c0-0.694-0.084-0.808-0.551-0.808v-0.139h1.596v0.139c-0.459,0-0.551,0.113-0.551,0.808v1.117
			c0,0.698,0.092,0.815,0.551,0.815v0.141h-1.596v-0.141c0.467,0,0.551-0.117,0.551-0.815v-0.517h-1.584v0.517
			c0,0.698,0.084,0.815,0.552,0.815v0.141h-1.599v-0.141c0.466,0,0.551-0.117,0.551-0.815v-1.117c0-0.694-0.085-0.808-0.551-0.808
			v-0.139h1.599v0.139c-0.468,0-0.552,0.113-0.552,0.808v0.345H291.471z"/>
		<path d="M292.64,128.187h-1.844V127.8h0.124c0.346,0,0.429,0,0.429-0.694v-0.393h-1.34v0.393c0,0.694,0.082,0.694,0.43,0.694
			h0.122v0.387h-1.845V127.8h0.124c0.347,0,0.428,0,0.428-0.694v-1.117c0-0.685-0.073-0.685-0.428-0.685h-0.124v-0.387h1.845v0.387
			h-0.122c-0.355,0-0.43,0-0.43,0.685v0.22h1.34v-0.22c0-0.685-0.075-0.685-0.429-0.685h-0.124v-0.387h1.844v0.387h-0.124
			c-0.346,0-0.429,0-0.429,0.685v1.117c0,0.694,0.091,0.694,0.429,0.694h0.124V128.187z M291.385,127.939h0.673
			c-0.176-0.128-0.215-0.388-0.215-0.833v-1.117c0-0.441,0.039-0.694,0.213-0.823h-0.67c0.171,0.126,0.208,0.378,0.208,0.823v0.466
			h-1.83v-0.466c0-0.445,0.036-0.697,0.208-0.823h-0.666c0.171,0.126,0.207,0.378,0.207,0.823v1.117
			c0,0.449-0.036,0.707-0.209,0.833h0.675c-0.177-0.128-0.215-0.388-0.215-0.833v-0.638h1.83v0.638
			C291.594,127.555,291.557,127.813,291.385,127.939z"/>
	</g>
	<g>
		<path d="M298.359,128.179h-0.138v-1.531h0.138c0,0,0.016,1.254,1.291,1.254c0.495,0,0.874-0.321,0.874-0.769
			c0-0.318-0.321-0.594-0.805-0.844l-0.669-0.34c-0.404-0.21-0.773-0.622-0.773-1.152c0-0.581,0.481-1.04,1.158-1.04
			c0.411,0,0.642,0.133,0.852,0.287c0.082-0.071,0.167-0.176,0.201-0.32h0.141v1.532h-0.146c-0.05-0.557-0.258-1.222-1.067-1.222
			c-0.391,0-0.677,0.275-0.677,0.622c0,0.364,0.244,0.552,0.844,0.865l0.669,0.344c0.537,0.271,0.727,0.674,0.727,1.06
			c0,0.761-0.608,1.254-1.327,1.254c-0.528,0-0.865-0.277-1.088-0.325C298.479,127.921,298.396,128.027,298.359,128.179z"/>
		<path d="M299.65,128.303c-0.385,0-0.675-0.136-0.887-0.237c-0.063-0.029-0.121-0.056-0.168-0.075
			c-0.058,0.062-0.097,0.135-0.116,0.216l-0.021,0.097h-0.36v-1.779h0.383l0.003,0.12c0,0.046,0.032,1.135,1.167,1.135
			c0.437,0,0.751-0.27,0.751-0.646c0-0.235-0.241-0.476-0.737-0.734l-0.669-0.343c-0.406-0.21-0.841-0.649-0.841-1.259
			c0-0.664,0.551-1.163,1.281-1.163c0.4,0,0.646,0.121,0.837,0.25c0.041-0.048,0.078-0.113,0.099-0.192l0.023-0.091h0.357v1.78
			h-0.383l-0.011-0.113c-0.065-0.746-0.374-1.108-0.943-1.108c-0.315,0-0.554,0.214-0.554,0.497c0,0.276,0.159,0.434,0.776,0.756
			l0.669,0.341c0.513,0.26,0.795,0.677,0.795,1.172C301.102,127.709,300.479,128.303,299.65,128.303z M298.529,127.721l0.06,0.013
			c0.085,0.018,0.175,0.061,0.28,0.11c0.201,0.095,0.451,0.214,0.781,0.214c0.698,0,1.204-0.478,1.204-1.133
			c0-0.283-0.113-0.677-0.659-0.95l-0.669-0.343c-0.552-0.289-0.911-0.513-0.911-0.976c0-0.424,0.344-0.743,0.8-0.743
			c0.401,0,0.878,0.156,1.091,0.82v-0.753c-0.045,0.067-0.096,0.119-0.14,0.156l-0.074,0.063l-0.078-0.058
			c-0.181-0.132-0.389-0.265-0.778-0.265c-0.592,0-1.036,0.397-1.036,0.919c0,0.499,0.366,0.865,0.707,1.043l0.671,0.343
			c0.374,0.192,0.869,0.503,0.869,0.95c0,0.509-0.428,0.892-0.996,0.892c-0.815,0-1.161-0.478-1.307-0.87v0.759
			c0.038-0.056,0.083-0.107,0.14-0.154L298.529,127.721z"/>
	</g>
	<g>
		<path d="M307.266,124.817h-0.147l-0.034-0.139c-0.099-0.368-0.167-0.528-0.811-0.528h-0.914v2.95c0,0.698,0.092,0.815,0.669,0.815
			v0.146h-1.889v-0.146c0.578,0,0.669-0.117,0.669-0.815v-2.95h-0.912c-0.644,0-0.713,0.16-0.812,0.528l-0.034,0.139h-0.147
			l0.062-0.94h4.236L307.266,124.817z"/>
		<path d="M306.151,128.187h-2.135v-0.393h0.123c0.485,0,0.547-0.039,0.547-0.694v-2.828h-0.79c-0.576,0-0.606,0.111-0.691,0.436
			l-0.06,0.234h-0.373l0.078-1.187h4.467l0.079,1.187h-0.374l-0.058-0.234c-0.087-0.324-0.116-0.436-0.691-0.436h-0.791v2.828
			c0,0.655,0.062,0.694,0.547,0.694h0.122V128.187z M304.676,127.939h0.817c-0.212-0.124-0.257-0.382-0.257-0.839v-3.075h1.037
			c0.529,0,0.726,0.11,0.84,0.358l-0.026-0.385h-4.006l-0.025,0.387c0.114-0.248,0.309-0.36,0.841-0.36h1.035v3.075
			C304.932,127.557,304.886,127.815,304.676,127.939z"/>
	</g>
	<g>
		<path d="M312.042,127.029c0.412,0.49,0.879,0.837,1.297,0.887v0.146h-1.15l-1.381-1.836h-0.328v0.874
			c0,0.698,0.084,0.815,0.662,0.815v0.146h-1.885v-0.146c0.581,0,0.665-0.117,0.665-0.815v-2.27c0-0.697-0.084-0.808-0.665-0.808
			v-0.146h1.843c0.971,0,1.502,0.53,1.502,1.18c0,0.606-0.454,1.087-1.243,1.17L312.042,127.029z M311.979,125.056
			c0-0.505-0.278-0.923-0.885-0.923h-0.614v1.844h0.614C311.7,125.977,311.979,125.563,311.979,125.056z"/>
		<path d="M313.463,128.187h-1.336l-1.382-1.838h-0.143v0.751c0,0.665,0.061,0.694,0.539,0.694h0.122v0.393h-2.128v-0.393h0.121
			c0.48,0,0.542-0.029,0.542-0.694v-2.27c0-0.659-0.062-0.685-0.542-0.685h-0.121v-0.391h1.964c1.121,0,1.624,0.653,1.624,1.301
			c0,0.634-0.436,1.109-1.129,1.258l0.54,0.638c0.417,0.492,0.861,0.8,1.219,0.843l0.109,0.012V128.187z M312.25,127.939h0.724
			c-0.331-0.143-0.685-0.428-1.024-0.829l-0.835-0.98l0.23-0.023c0.699-0.075,1.133-0.479,1.133-1.05
			c0-0.644-0.54-1.058-1.378-1.058h-1.301c0.204,0.125,0.246,0.375,0.246,0.832v2.27c0,0.463-0.042,0.715-0.248,0.839h0.808
			c-0.206-0.124-0.247-0.376-0.247-0.839v-0.994h0.512L312.25,127.939z M311.094,126.1h-0.736v-2.087h0.736
			c0.611,0,1.008,0.407,1.008,1.043C312.102,125.698,311.716,126.1,311.094,126.1z M310.603,125.854h0.491
			c0.688,0,0.763-0.558,0.763-0.798c0-0.503-0.285-0.8-0.763-0.8h-0.491V125.854z"/>
	</g>
	<g>
		<path d="M315.257,127.916c0.58,0,0.663-0.117,0.663-0.815v-2.27c0-0.697-0.083-0.808-0.663-0.808v-0.146h3.182l0.063,0.921h-0.147
			l-0.034-0.141c-0.097-0.362-0.168-0.523-0.81-0.523h-1.031v1.584h0.347c0.699,0,0.81-0.083,0.81-0.669h0.146v1.6h-0.146
			c0-0.588-0.11-0.671-0.81-0.671h-0.347v1.018c0,0.699,0.081,0.81,0.661,0.81h0.601c0.642,0,0.719-0.16,0.808-0.53l0.036-0.141
			h0.145l-0.054,0.929h-3.419V127.916z"/>
		<path d="M318.791,128.187h-3.656v-0.393h0.122c0.479,0,0.54-0.029,0.54-0.694v-2.27c0-0.659-0.061-0.685-0.54-0.685h-0.122v-0.391
			h3.419l0.079,1.164h-0.374l-0.057-0.233c-0.085-0.312-0.117-0.43-0.691-0.43h-0.909v1.339h0.225c0.663,0,0.686-0.054,0.686-0.549
			v-0.121h0.394v1.844h-0.394v-0.121c0-0.495-0.022-0.548-0.686-0.548h-0.225v0.895c0,0.663,0.053,0.686,0.54,0.686h0.6
			c0.583,0,0.611-0.117,0.688-0.436l0.061-0.232h0.37L318.791,128.187z M315.794,127.939h2.766l0.021-0.366
			c-0.111,0.24-0.312,0.354-0.84,0.354h-0.6c-0.683,0-0.787-0.21-0.787-0.933v-1.141h0.472c0.459,0,0.711,0.042,0.833,0.25v-0.513
			c-0.122,0.208-0.374,0.251-0.833,0.251h-0.472v-1.829h1.156c0.527,0,0.726,0.108,0.838,0.348l-0.024-0.362h-2.525
			c0.201,0.125,0.243,0.375,0.243,0.832v2.27C316.042,127.563,316,127.815,315.794,127.939z"/>
	</g>
	<g>
		<path d="M320.998,127.916c0.578,0,0.662-0.117,0.662-0.815v-2.27c0-0.697-0.084-0.808-0.662-0.808v-0.146h3.181l0.063,0.921
			h-0.146l-0.035-0.141c-0.099-0.362-0.168-0.523-0.81-0.523h-1.032v1.584h0.348c0.699,0,0.809-0.083,0.809-0.669h0.147v1.6h-0.147
			c0-0.588-0.109-0.671-0.809-0.671h-0.348v1.018c0,0.699,0.083,0.81,0.663,0.81h0.6c0.642,0,0.719-0.16,0.808-0.53l0.036-0.141
			h0.146l-0.055,0.929h-3.418V127.916z"/>
		<path d="M324.53,128.187h-3.655v-0.393h0.123c0.479,0,0.539-0.029,0.539-0.694v-2.27c0-0.659-0.061-0.685-0.539-0.685h-0.123
			v-0.391h3.419l0.079,1.164h-0.374l-0.057-0.233c-0.085-0.312-0.117-0.43-0.691-0.43h-0.909v1.339h0.225
			c0.663,0,0.686-0.054,0.686-0.549v-0.121h0.394v1.844h-0.394v-0.121c0-0.495-0.022-0.548-0.686-0.548h-0.225v0.895
			c0,0.663,0.053,0.686,0.54,0.686h0.6c0.583,0,0.613-0.117,0.688-0.436l0.061-0.232h0.37L324.53,128.187z M321.534,127.939h2.766
			l0.021-0.366c-0.109,0.24-0.312,0.354-0.84,0.354h-0.6c-0.683,0-0.786-0.21-0.786-0.933v-1.141h0.471
			c0.459,0,0.711,0.042,0.833,0.25v-0.513c-0.122,0.208-0.374,0.251-0.833,0.251h-0.471v-1.829h1.155
			c0.528,0,0.723,0.108,0.838,0.348l-0.024-0.362h-2.525c0.202,0.125,0.244,0.375,0.244,0.832v2.27
			C321.783,127.563,321.741,127.815,321.534,127.939z"/>
	</g>
	<g>
		<path d="M330.89,124.817h-0.146l-0.035-0.139c-0.098-0.368-0.166-0.528-0.81-0.528h-0.915v2.95c0,0.698,0.093,0.815,0.672,0.815
			v0.146h-1.891v-0.146c0.578,0,0.67-0.117,0.67-0.815v-2.95h-0.914c-0.643,0-0.711,0.16-0.809,0.528l-0.037,0.139h-0.146
			l0.063-0.94h4.235L330.89,124.817z"/>
		<path d="M329.776,128.187h-2.135v-0.393h0.123c0.485,0,0.547-0.039,0.547-0.694v-2.828h-0.791c-0.575,0-0.604,0.111-0.691,0.436
			l-0.059,0.234h-0.374l0.08-1.187h4.466l0.079,1.187h-0.375l-0.057-0.236c-0.088-0.322-0.117-0.434-0.691-0.434h-0.791v2.828
			c0,0.655,0.061,0.694,0.547,0.694h0.122V128.187z M328.301,127.939h0.817c-0.212-0.124-0.256-0.382-0.256-0.839v-3.075h1.036
			c0.529,0,0.726,0.11,0.84,0.36l-0.026-0.387h-4.005l-0.027,0.387c0.114-0.248,0.31-0.36,0.841-0.36h1.037v3.075
			C328.558,127.557,328.513,127.815,328.301,127.939z"/>
	</g>
	<g>
		<path d="M339.755,126.89c0,0.649-0.531,1.172-1.5,1.172h-2.072v-0.146c0.58,0,0.664-0.117,0.664-0.815v-2.27
			c0-0.697-0.084-0.808-0.664-0.808v-0.146h1.878c0.885,0,1.346,0.467,1.346,1.045c0,0.362-0.224,0.678-0.545,0.867
			C339.398,125.956,339.755,126.389,339.755,126.89z M337.403,125.702h0.62c0.525,0,0.77-0.347,0.77-0.78
			c0-0.432-0.244-0.788-0.77-0.788h-0.62V125.702z M339.141,126.89c0-0.509-0.285-0.929-0.894-0.929h-0.844v1.033
			c0,0.699,0.085,0.81,0.663,0.81h0.181C338.855,127.804,339.141,127.393,339.141,126.89z"/>
		<path d="M338.255,128.187h-2.194v-0.393h0.122c0.479,0,0.54-0.029,0.54-0.694v-2.27c0-0.659-0.061-0.685-0.54-0.685h-0.122v-0.391
			h2c0.892,0,1.468,0.457,1.468,1.166c0,0.317-0.15,0.614-0.409,0.834c0.467,0.226,0.758,0.649,0.758,1.135
			C339.877,127.536,339.376,128.187,338.255,128.187z M336.721,127.939h1.534c0.837,0,1.377-0.411,1.377-1.049
			c0-0.445-0.316-0.832-0.808-0.986l-0.264-0.081l0.238-0.141c0.304-0.179,0.485-0.462,0.485-0.761c0-0.561-0.48-0.923-1.224-0.923
			h-1.338c0.205,0.125,0.246,0.375,0.246,0.832v2.27C336.969,127.563,336.928,127.815,336.721,127.939z M338.247,127.927h-0.181
			c-0.683,0-0.785-0.21-0.785-0.933v-1.154h0.966c0.617,0,1.017,0.41,1.017,1.05C339.264,127.519,338.864,127.927,338.247,127.927z
			 M337.526,126.086v0.908c0,0.661,0.062,0.686,0.54,0.686h0.181c0.482,0,0.771-0.295,0.771-0.79c0-0.503-0.288-0.804-0.771-0.804
			H337.526z M338.023,125.827h-0.742v-1.813h0.742c0.543,0,0.892,0.356,0.892,0.908
			C338.915,125.472,338.566,125.827,338.023,125.827z M337.526,125.582h0.497c0.583,0,0.646-0.46,0.646-0.66
			c0-0.418-0.241-0.665-0.646-0.665h-0.497V125.582z"/>
	</g>
	<g>
		<path d="M344.812,127.029c0.412,0.49,0.879,0.837,1.298,0.887v0.146h-1.152l-1.382-1.836h-0.327v0.874
			c0,0.698,0.083,0.815,0.662,0.815v0.146h-1.882v-0.146c0.578,0,0.662-0.117,0.662-0.815v-2.27c0-0.697-0.084-0.808-0.662-0.808
			v-0.146h1.842c0.968,0,1.499,0.53,1.499,1.18c0,0.606-0.454,1.087-1.242,1.17L344.812,127.029z M344.749,125.056
			c0-0.505-0.28-0.923-0.887-0.923h-0.614v1.844h0.614C344.469,125.977,344.749,125.563,344.749,125.056z"/>
		<path d="M346.232,128.187h-1.337l-1.381-1.838h-0.143v0.751c0,0.665,0.062,0.694,0.539,0.694h0.123v0.393h-2.129v-0.393h0.123
			c0.479,0,0.539-0.029,0.539-0.694v-2.27c0-0.659-0.061-0.685-0.539-0.685h-0.123v-0.391h1.964c1.121,0,1.622,0.653,1.622,1.301
			c0,0.634-0.436,1.109-1.129,1.258l0.543,0.636c0.416,0.494,0.859,0.802,1.218,0.845l0.109,0.012V128.187z M345.02,127.939h0.724
			c-0.333-0.143-0.687-0.428-1.026-0.829l-0.834-0.98l0.23-0.023c0.699-0.075,1.134-0.479,1.134-1.05
			c0-0.634-0.554-1.058-1.378-1.058h-1.301c0.203,0.125,0.244,0.375,0.244,0.832v2.27c0,0.463-0.041,0.715-0.248,0.839h0.81
			c-0.206-0.124-0.248-0.376-0.248-0.839v-0.994h0.51L345.02,127.939z M343.862,126.1h-0.736v-2.087h0.736
			c0.613,0,1.01,0.407,1.01,1.043C344.872,125.698,344.484,126.1,343.862,126.1z M343.372,125.854h0.49
			c0.688,0,0.764-0.558,0.764-0.798c0-0.503-0.286-0.8-0.764-0.8h-0.49V125.854z"/>
	</g>
	<g>
		<path d="M350.579,128.179c-1.276,0-2.322-0.996-2.322-2.21s1.046-2.212,2.322-2.212c1.284,0,2.332,0.998,2.332,2.212
			S351.863,128.179,350.579,128.179z M348.919,125.969c0,0.865,0.459,1.933,1.66,1.933c1.208,0,1.667-1.067,1.667-1.933
			s-0.459-1.94-1.667-1.94C349.378,124.029,348.919,125.104,348.919,125.969z"/>
		<path d="M350.578,128.303c-1.348,0-2.444-1.047-2.444-2.334c0-1.289,1.097-2.335,2.444-2.335c1.354,0,2.454,1.046,2.454,2.335
			C353.032,127.256,351.932,128.303,350.578,128.303z M350.578,123.878c-1.213,0-2.198,0.938-2.198,2.091s0.985,2.089,2.198,2.089
			c1.219,0,2.21-0.937,2.21-2.089S351.797,123.878,350.578,123.878z M350.578,128.025c-1.224,0-1.782-1.067-1.782-2.056
			c0-0.992,0.559-2.062,1.782-2.062c1.229,0,1.792,1.069,1.792,2.062C352.37,126.958,351.808,128.025,350.578,128.025z
			 M350.578,124.152c-1.213,0-1.536,1.145-1.536,1.817c0,0.671,0.323,1.81,1.536,1.81c1.22,0,1.546-1.139,1.546-1.81
			C352.124,125.296,351.798,124.152,350.578,124.152z"/>
	</g>
	<g>
		<path d="M357.89,128.179c-1.276,0-2.323-0.996-2.323-2.21s1.047-2.212,2.323-2.212c1.284,0,2.329,0.998,2.329,2.212
			S359.174,128.179,357.89,128.179z M356.229,125.969c0,0.865,0.46,1.933,1.66,1.933c1.207,0,1.667-1.067,1.667-1.933
			s-0.46-1.94-1.667-1.94C356.689,124.029,356.229,125.104,356.229,125.969z"/>
		<path d="M357.891,128.303c-1.35,0-2.447-1.047-2.447-2.334c0-1.289,1.098-2.335,2.447-2.335c1.352,0,2.452,1.046,2.452,2.335
			C360.343,127.256,359.242,128.303,357.891,128.303z M357.891,123.878c-1.214,0-2.202,0.938-2.202,2.091s0.988,2.089,2.202,2.089
			c1.217,0,2.207-0.937,2.207-2.089S359.107,123.878,357.891,123.878z M357.891,128.025c-1.226,0-1.784-1.067-1.784-2.056
			c0-0.992,0.559-2.062,1.784-2.062c1.229,0,1.79,1.069,1.79,2.062C359.681,126.958,359.12,128.025,357.891,128.025z
			 M357.891,124.152c-1.216,0-1.538,1.145-1.538,1.817c0,0.671,0.322,1.81,1.538,1.81c1.219,0,1.545-1.139,1.545-1.81
			C359.436,125.296,359.109,124.152,357.891,124.152z"/>
	</g>
	<g>
		<path d="M366.609,127.511c0.259,0.223,0.711,0.404,0.899,0.404v0.146h-1.959v-0.146c0.459,0,0.543-0.166,0.265-0.404l-1.765-1.528
			l-0.182,0.146v0.971c0,0.698,0.083,0.815,0.663,0.815v0.146h-1.885v-0.146c0.579,0,0.663-0.117,0.663-0.815v-2.27
			c0-0.697-0.084-0.808-0.663-0.808v-0.146h1.885v0.146c-0.58,0-0.663,0.11-0.663,0.808v0.979l1.429-1.22
			c0.439-0.379,0.469-0.566,0.03-0.566v-0.146h1.616v0.146c-0.537,0-0.787,0.148-1.275,0.566l-1.222,1.045L366.609,127.511z"/>
		<path d="M367.632,128.187h-2.206v-0.393h0.124c0.237,0,0.296-0.047,0.305-0.057c-0.004,0-0.018-0.046-0.12-0.135l-1.688-1.46
			l-0.056,0.046v0.911c0,0.665,0.061,0.694,0.54,0.694h0.122v0.393h-2.129v-0.393h0.122c0.479,0,0.541-0.029,0.541-0.694v-2.27
			c0-0.659-0.062-0.685-0.541-0.685h-0.122v-0.391h2.129v0.391h-0.122c-0.486,0-0.54,0.023-0.54,0.685v0.711l1.227-1.048
			c0.25-0.214,0.293-0.309,0.3-0.332c-0.01-0.004-0.057-0.016-0.19-0.016h-0.124v-0.391h1.864v0.391h-0.124
			c-0.491,0-0.72,0.128-1.195,0.534l-1.113,0.956l2.055,1.782c0.24,0.206,0.668,0.376,0.819,0.376h0.123V128.187z M365.997,127.939
			h1.11c-0.2-0.079-0.419-0.199-0.579-0.336l-2.268-1.967L363.833,126l0.219-0.178l1.844,1.596c0.17,0.146,0.233,0.283,0.188,0.408
			C366.067,127.87,366.038,127.91,365.997,127.939z M363.186,127.939h0.808c-0.206-0.124-0.247-0.376-0.247-0.839v-2.27
			c0-0.457,0.041-0.707,0.244-0.832h-0.803c0.203,0.125,0.244,0.375,0.244,0.832v2.27
			C363.432,127.563,363.391,127.815,363.186,127.939z M365.7,123.999c0.021,0.022,0.039,0.048,0.051,0.08
			c0.048,0.128-0.021,0.272-0.237,0.48l0.074-0.065c0.289-0.245,0.504-0.403,0.738-0.495H365.7z"/>
	</g>
	<g>
		<path d="M369.413,127.916c0.579,0,0.663-0.117,0.663-0.815v-2.27c0-0.697-0.084-0.808-0.663-0.808v-0.146h1.883v0.146
			c-0.578,0-0.662,0.11-0.662,0.808v2.164c0,0.699,0.084,0.81,0.662,0.81h0.838c0.635,0,0.712-0.16,0.803-0.53l0.033-0.141h0.148
			l-0.059,0.929h-3.646V127.916z"/>
		<path d="M373.176,128.187h-3.887v-0.393h0.124c0.479,0,0.54-0.029,0.54-0.694v-2.27c0-0.659-0.062-0.685-0.54-0.685h-0.124v-0.391
			h2.13v0.391h-0.123c-0.479,0-0.539,0.025-0.539,0.685v2.164c0,0.661,0.06,0.686,0.539,0.686h0.838
			c0.576,0,0.605-0.117,0.685-0.436l0.056-0.232h0.375L373.176,128.187z M369.95,127.939h2.995l0.022-0.366
			c-0.11,0.24-0.311,0.354-0.834,0.354h-0.838c-0.683,0-0.785-0.21-0.785-0.933v-2.164c0-0.457,0.042-0.707,0.245-0.832h-0.803
			c0.204,0.125,0.246,0.375,0.246,0.832v2.27C370.199,127.563,370.157,127.815,369.95,127.939z"/>
	</g>
	<g>
		<path d="M376.608,127.1c0,0.698,0.085,0.815,0.663,0.815v0.146h-1.883v-0.146c0.579,0,0.661-0.117,0.661-0.815v-0.678
			l-1.157-1.794c-0.3-0.457-0.516-0.605-1.013-0.605v-0.146h1.99v0.146c-0.587,0-0.587,0.21-0.377,0.528l1.004,1.537l1.02-1.537
			c0.244-0.374,0.21-0.528-0.378-0.528v-0.146h1.633v0.146c-0.586,0-0.732,0.193-1.011,0.605l-1.152,1.745V127.1z"/>
		<path d="M377.394,128.187h-2.129v-0.393h0.124c0.479,0,0.538-0.029,0.538-0.694v-0.642l-1.137-1.763
			c-0.285-0.438-0.473-0.55-0.909-0.55h-0.123v-0.391h2.233v0.391h-0.123c-0.324,0-0.372,0.066-0.376,0.077
			c-0.006,0.01-0.023,0.064,0.104,0.263l0.9,1.38l0.916-1.38c0.143-0.222,0.123-0.271,0.121-0.277
			c-0.002-0.002-0.04-0.062-0.395-0.062h-0.123v-0.391h1.879v0.391h-0.124c-0.535,0-0.646,0.162-0.911,0.552l-1.128,1.711v0.691
			c0,0.665,0.061,0.694,0.538,0.694h0.123V128.187z M375.925,127.939h0.809c-0.205-0.124-0.247-0.376-0.247-0.839v-0.763
			l0.021-0.029l1.15-1.745c0.182-0.269,0.319-0.457,0.549-0.564h-0.541c0.036,0.026,0.062,0.056,0.084,0.096
			c0.084,0.154-0.013,0.345-0.132,0.524l-1.122,1.693l-1.105-1.691c-0.1-0.154-0.204-0.349-0.114-0.515
			c0.023-0.042,0.055-0.079,0.098-0.107h-0.941c0.205,0.098,0.372,0.273,0.562,0.564l1.179,1.824v0.713
			C376.174,127.563,376.132,127.815,375.925,127.939z"/>
	</g>
	<g>
		<path d="M384.106,124.831c0-0.697-0.083-0.808-0.662-0.808v-0.146h1.59v0.146c-0.578,0-0.669,0.11-0.669,0.808v3.349h-0.161
			l-2.839-3.507v2.428c0,0.698,0.092,0.815,0.67,0.815v0.146h-1.591v-0.146c0.579,0,0.663-0.117,0.663-0.815v-2.27
			c0-0.697-0.084-0.808-0.663-0.808v-0.146h0.984l2.678,3.32V124.831z"/>
		<path d="M384.488,128.303h-0.343l-0.036-0.047l-2.622-3.237v2.081c0,0.655,0.062,0.694,0.548,0.694h0.123v0.393h-1.836v-0.393
			h0.122c0.479,0,0.54-0.029,0.54-0.694v-2.27c0-0.659-0.061-0.685-0.54-0.685h-0.122v-0.391h1.164l2.498,3.095v-2.02
			c0-0.659-0.061-0.685-0.54-0.685h-0.123v-0.391h1.837v0.391h-0.124c-0.483,0-0.546,0.025-0.546,0.685V128.303z M381.242,124.326
			l2.999,3.707v-3.202c0-0.457,0.042-0.707,0.248-0.832h-0.505c0.204,0.125,0.245,0.375,0.245,0.832v2.715l-2.86-3.547h-0.384
			c0.203,0.125,0.244,0.375,0.244,0.832v2.27c0,0.463-0.041,0.715-0.247,0.839h0.516c-0.211-0.124-0.256-0.382-0.256-0.839V124.326z
			"/>
	</g>
	<g>
		<path d="M394.138,124.831c0-0.697-0.084-0.808-0.662-0.808v-0.146h1.59v0.146c-0.58,0-0.671,0.11-0.671,0.808v3.349h-0.159
			l-2.84-3.507v2.428c0,0.698,0.091,0.815,0.669,0.815v0.146h-1.589v-0.146c0.577,0,0.662-0.117,0.662-0.815v-2.27
			c0-0.697-0.085-0.808-0.662-0.808v-0.146h0.982l2.68,3.32V124.831z"/>
		<path d="M394.518,128.303h-0.341l-0.037-0.047l-2.621-3.237v2.081c0,0.655,0.062,0.694,0.546,0.694h0.123v0.393h-1.836v-0.393
			h0.123c0.479,0,0.54-0.029,0.54-0.694v-2.27c0-0.659-0.061-0.685-0.54-0.685h-0.123v-0.391h1.166l2.496,3.095v-2.02
			c0-0.659-0.06-0.685-0.538-0.685h-0.124v-0.391h1.836v0.391h-0.122c-0.485,0-0.548,0.025-0.548,0.685V128.303z M391.272,124.326
			l2.999,3.707v-3.202c0-0.457,0.042-0.707,0.248-0.832h-0.504c0.203,0.125,0.244,0.375,0.244,0.832v2.715l-2.86-3.547h-0.385
			c0.204,0.125,0.245,0.375,0.245,0.832v2.27c0,0.463-0.041,0.715-0.247,0.839h0.518c-0.212-0.124-0.258-0.382-0.258-0.839V124.326z
			"/>
	</g>
	<g>
		<path d="M396.342,128.118c-0.218,0-0.384-0.169-0.384-0.362c0-0.202,0.166-0.368,0.384-0.368c0.215,0,0.396,0.166,0.396,0.368
			C396.738,127.949,396.557,128.118,396.342,128.118z"/>
		<path d="M396.342,128.243c-0.279,0-0.506-0.22-0.506-0.487c0-0.271,0.227-0.493,0.506-0.493c0.287,0,0.519,0.222,0.519,0.493
			C396.86,128.018,396.623,128.243,396.342,128.243z M396.342,127.509c-0.147,0-0.261,0.109-0.261,0.246
			c0,0.133,0.117,0.239,0.261,0.239c0.146,0,0.274-0.11,0.274-0.239C396.616,127.623,396.49,127.509,396.342,127.509z"/>
	</g>
	<g>
		<path d="M399.912,127.1c0,0.698,0.084,0.815,0.664,0.815v0.146h-1.883v-0.146c0.578,0,0.662-0.117,0.662-0.815v-0.678
			l-1.158-1.794c-0.3-0.457-0.518-0.605-1.012-0.605v-0.146h1.987v0.146c-0.585,0-0.585,0.21-0.377,0.528l1.006,1.537l1.019-1.537
			c0.245-0.374,0.208-0.528-0.378-0.528v-0.146h1.634v0.146c-0.586,0-0.732,0.193-1.011,0.605l-1.153,1.745V127.1z"/>
		<path d="M400.698,128.187h-2.129v-0.393h0.124c0.477,0,0.538-0.029,0.538-0.694v-0.642l-1.138-1.763
			c-0.286-0.438-0.472-0.55-0.908-0.55h-0.123v-0.391h2.233v0.391h-0.123c-0.325,0-0.372,0.068-0.377,0.077
			c-0.005,0.01-0.023,0.067,0.104,0.263l0.902,1.38l0.916-1.38c0.143-0.222,0.122-0.271,0.12-0.275
			c-0.001-0.004-0.04-0.064-0.396-0.064h-0.123v-0.391h1.88v0.391h-0.123c-0.536,0-0.645,0.162-0.91,0.552l-1.131,1.711v0.691
			c0,0.665,0.061,0.694,0.541,0.694h0.122V128.187z M399.229,127.939h0.807c-0.206-0.124-0.246-0.376-0.246-0.839v-0.763
			l0.021-0.029l1.151-1.745c0.183-0.269,0.321-0.457,0.55-0.564h-0.543c0.037,0.026,0.063,0.058,0.086,0.096
			c0.084,0.154-0.015,0.345-0.131,0.524l-1.123,1.693l-1.107-1.691c-0.101-0.154-0.202-0.353-0.113-0.515
			c0.022-0.042,0.057-0.079,0.098-0.107h-0.942c0.207,0.098,0.375,0.273,0.564,0.564l1.178,1.824v0.713
			C399.478,127.563,399.437,127.815,399.229,127.939z"/>
	</g>
	<g>
		<path d="M402.651,128.118c-0.217,0-0.384-0.169-0.384-0.362c0-0.202,0.167-0.368,0.384-0.368c0.216,0,0.397,0.166,0.397,0.368
			C403.049,127.949,402.867,128.118,402.651,128.118z"/>
		<path d="M402.651,128.243c-0.279,0-0.507-0.22-0.507-0.487c0-0.277,0.223-0.493,0.507-0.493c0.286,0,0.52,0.222,0.52,0.493
			C403.171,128.018,402.934,128.243,402.651,128.243z M402.651,127.509c-0.146,0-0.261,0.109-0.261,0.246
			c0,0.133,0.116,0.239,0.261,0.239c0.146,0,0.274-0.11,0.274-0.239C402.926,127.623,402.801,127.509,402.651,127.509z"/>
	</g>
	<g>
		<path d="M407.882,128.062v-0.146c0.468,0,0.56-0.117,0.56-0.815v-1.067c0-0.699-0.169-0.767-0.67-0.755v-0.145l1.157-0.231v2.198
			c0,0.698,0.091,0.815,0.558,0.815v0.146H407.882z"/>
		<path d="M409.61,128.187h-1.851v-0.393h0.122c0.353,0,0.436,0,0.436-0.694v-1.067c0-0.632-0.131-0.632-0.448-0.632l-0.222,0.004
			v-0.372l1.405-0.279v2.347c0,0.694,0.082,0.694,0.435,0.694h0.123V128.187z M408.336,127.939h0.697
			c-0.186-0.126-0.227-0.386-0.227-0.839v-2.05l-0.652,0.131c0.102,0.023,0.187,0.069,0.254,0.15
			c0.111,0.131,0.154,0.335,0.154,0.701v1.067C408.562,127.553,408.523,127.813,408.336,127.939z"/>
	</g>
	<g>
		<path d="M412.812,128.062v-0.146c0.469,0,0.56-0.117,0.56-0.815v-1.067c0-0.699-0.168-0.767-0.669-0.755v-0.145l1.157-0.231v2.198
			c0,0.698,0.09,0.815,0.558,0.815v0.146H412.812z"/>
		<path d="M414.541,128.187h-1.85v-0.393h0.122c0.352,0,0.435,0,0.435-0.694v-1.067c0-0.632-0.13-0.632-0.448-0.632l-0.221,0.004
			v-0.372l1.405-0.279v2.347c0,0.694,0.082,0.694,0.434,0.694h0.123V128.187z M413.269,127.939h0.696
			c-0.186-0.126-0.227-0.386-0.227-0.839v-2.05l-0.653,0.131c0.103,0.023,0.188,0.069,0.255,0.15
			c0.109,0.131,0.155,0.335,0.155,0.701v1.067C413.495,127.553,413.453,127.813,413.269,127.939z"/>
	</g>
	<g>
		<path d="M417.41,127.894l1.276-1.143c0.266-0.24,0.426-0.539,0.426-0.79c0-0.515-0.307-0.745-0.726-0.745
			c-0.396,0-0.858,0.474-0.467,1.046l-0.21,0.216c-0.733-0.501-0.347-1.557,0.727-1.557c0.6,0,1.158,0.356,1.158,0.935
			c0,0.561-0.559,0.979-0.559,0.979l-0.942,0.823h1.591l-0.076,0.404h-2.198V127.894z"/>
		<path d="M419.711,128.187h-2.423v-0.347l1.317-1.183c0.236-0.209,0.383-0.477,0.383-0.696c0-0.513-0.326-0.624-0.601-0.624
			c-0.173,0-0.354,0.115-0.441,0.277c-0.062,0.123-0.101,0.318,0.075,0.578l0.056,0.081l-0.351,0.362l-0.086-0.058
			c-0.36-0.245-0.51-0.64-0.391-1.025c0.142-0.457,0.607-0.752,1.188-0.752c0.62,0,1.28,0.37,1.28,1.055
			c0,0.614-0.585,1.058-0.609,1.075l-0.688,0.604h1.411L419.711,128.187z M417.544,127.939h1.963l0.03-0.158h-1.77l1.188-1.039
			c0.012-0.008,0.516-0.396,0.516-0.886c0-0.526-0.533-0.812-1.034-0.812c-0.571,0-0.87,0.312-0.953,0.58
			c-0.079,0.254,0.001,0.507,0.213,0.691l0.066-0.071c-0.189-0.337-0.105-0.606-0.033-0.743c0.129-0.245,0.392-0.407,0.657-0.407
			c0.53,0,0.847,0.322,0.847,0.867c0,0.291-0.174,0.619-0.465,0.881L417.544,127.939z"/>
	</g>
	<g>
		<path d="M423.479,128.179c-0.656,0-1.184-0.73-1.184-1.63c0-0.893,0.527-1.628,1.184-1.628c0.662,0,1.193,0.735,1.193,1.628
			C424.672,127.449,424.141,128.179,423.479,128.179z M423.479,125.181c-0.466,0-0.683,0.607-0.683,1.368
			c0,0.759,0.217,1.366,0.683,1.366c0.476,0,0.691-0.607,0.691-1.366C424.17,125.789,423.954,125.181,423.479,125.181z"/>
		<path d="M423.479,128.303c-0.721,0-1.308-0.788-1.308-1.754c0-0.964,0.587-1.748,1.308-1.748c0.726,0,1.315,0.784,1.315,1.748
			C424.794,127.515,424.204,128.303,423.479,128.303z M423.479,125.044c-0.586,0-1.062,0.675-1.062,1.505
			c0,0.832,0.477,1.509,1.062,1.509c0.591,0,1.071-0.677,1.071-1.509C424.55,125.719,424.069,125.044,423.479,125.044z
			 M423.479,128.039c-0.504,0-0.806-0.557-0.806-1.489c0-0.935,0.302-1.491,0.806-1.491c0.509,0,0.813,0.557,0.813,1.491
			C424.292,127.482,423.987,128.039,423.479,128.039z M423.479,125.304c-0.413,0-0.562,0.644-0.562,1.245
			c0,0.6,0.148,1.245,0.562,1.245c0.418,0,0.568-0.646,0.568-1.245C424.047,125.948,423.896,125.304,423.479,125.304z"/>
	</g>
	<g>
		<path d="M428.299,126.661c-0.063,0.099-0.132,0.138-0.193,0.138c-0.078,0-0.148-0.055-0.148-0.132c0-0.05,0.015-0.105,0.063-0.161
			l0.942-1.059h-0.845c-0.3,0-0.564,0.083-0.642,0.388l-0.036,0.143h-0.153l0.16-0.935h2.045v0.187l-0.802,0.929
			c0.502,0.138,0.864,0.558,0.864,0.997c0,0.551-0.509,1.024-1.2,1.024c-0.669,0-1.054-0.402-1.054-0.618
			c0-0.085,0.062-0.162,0.189-0.162c0.244,0,0.202,0.489,0.864,0.489c0.488,0,0.706-0.335,0.706-0.733
			c0-0.356-0.231-0.683-0.602-0.732C428.418,126.472,428.375,126.528,428.299,126.661z"/>
		<path d="M428.354,128.303c-0.719,0-1.176-0.441-1.176-0.742c0-0.143,0.105-0.283,0.312-0.283c0.154,0,0.234,0.109,0.306,0.206
			c0.099,0.133,0.208,0.281,0.559,0.281c0.525,0,0.583-0.426,0.583-0.61c0-0.253-0.146-0.526-0.428-0.598
			c-0.025,0.034-0.058,0.083-0.104,0.162c-0.108,0.169-0.223,0.202-0.301,0.202c-0.149,0-0.271-0.114-0.271-0.255
			c0-0.09,0.032-0.169,0.094-0.242l0.762-0.855h-0.571c-0.398,0-0.487,0.159-0.523,0.297l-0.06,0.234h-0.393l0.202-1.183h2.271
			v0.356l-0.714,0.828c0.459,0.193,0.776,0.613,0.776,1.053C429.678,127.798,429.097,128.303,428.354,128.303z M427.49,127.522
			c-0.024,0-0.066,0.004-0.066,0.039c0,0.143,0.327,0.497,0.931,0.497s1.078-0.398,1.078-0.903c0-0.384-0.327-0.754-0.776-0.879
			l-0.185-0.052l0.897-1.059h-1.817l-0.065,0.386c0.129-0.15,0.341-0.228,0.632-0.228h1.116l-1.122,1.264
			c-0.029,0.033-0.033,0.057-0.033,0.079c0.039,0.012,0.074-0.006,0.117-0.071c0.076-0.135,0.122-0.196,0.17-0.252l0.044-0.052
			l0.065,0.009c0.41,0.055,0.708,0.413,0.708,0.854c0,0.52-0.325,0.855-0.829,0.855c-0.475,0-0.644-0.229-0.755-0.382
			C427.544,127.553,427.518,127.522,427.49,127.522z"/>
	</g>
</g>
</svg>
